M48
;Layer_Color=9474304
;FILE_FORMAT=2:5
INCH,LZ
;TYPE=NON_PLATED
T15F00S00C0.06701
T16F00S00C0.12000
T17F00S00C0.15701
%
T15
X0169025Y00381
X0209025
Y01131
X0169025
X02909
Y00381
X0300275
X03309
X0340275
X038465
X0394025
X042465
X0434025
X0450275Y01131
X0415275
X0375275
X03684
X03309
X03284
X0490275
X0525275
X0565275
X0600275
X0527775Y00381
X05184
X0487775
X04784
X0640275Y01131
X0675275
X0715275
X0750275
X075965Y00381
X079965
X0806525
X0846525
X0865275Y01131
X0900275
X0825275
X0790275
X0940275
X0975275
X1015275
X1050275
X1090275
X10809Y00381
X10409
X1125275
X113465
X1165275
X117465
X1219025
X12284
X12285Y01131
X1165275
X1125275
X12659
X12685
X13059
X13315
X13715
X136215Y00381
X1352775
X132215
X1312775
X12684
X1259025
X1444025
X1484025
X1519025
X1559025
Y01131
X1519025
X1594025Y00381
X1634025
Y02631
X1594025
X1559025
X1519025
X1484025
X1444025
X1352775
X1312775
X132215Y02256
X132465Y01881
X128465
X1277775
X1259025Y02631
X136215Y02256
X1237775Y01881
X1202775
X1162775
X1127775
X1144025Y02631
X1109025
X1184025
X1219025
X1069025
X1034025
X0994025
X0959025
X0977775Y01881
X1012775
X1052775
X1087775
X0937775
X0902775
X0862775
X0827775
X0787775
X0809025Y02631
X0844025
X0884025
X0919025
X0769025
X0734025
X0694025
X0659025
X0677775Y01881
X0712775
X0752775
X0637775
X0602775
X0562775
X0527775
X0487775
X0469025Y02631
X0509025
X0544025
X0584025
X0619025
X0434025
X0394025
X0340275
X034965Y01881
X0412775
X0452775
X02909
X0209025
X0169025
Y02631
X0209025
X0300275
X0281525Y03381
X0209025
X0169025
X0321525
X0356525
X0396525
X0431525
X0471525
X0506525
X0546525
X0581525
X0621525
X0656525
X0696525
X0731525
X0771525
X0806524
X0846524
X0881525
X0921525
X0956525
X0996525
X1031525
X1071525
X1106525
X1146525
X1181525
X1221525
X1256525
X1294025
X1296525
X1331525
X1334025
X1371525
X1444025
X1484025
X1519025
X1559025
X1594025
X1634025
T16
X03014Y01406
X03954
X05828Y00106
X0601525
X09765
X1051525
X12389Y01406
X13329
X136965Y01786
X135165Y02156
X136965Y02726
X125765Y02156
X1267025Y03656
X1361025
T17
X0189025Y00381
Y01131
X03109
X03014Y00806
X03109Y00381
X0320275
X040465
X0414025
X03954Y00806
X0395275Y01131
X03484
X0470275
X0545275
X0620275
X0601525Y00706
X05828
X0507775Y00381
X04984
X0695275Y01131
X0770275
X077965Y00381
X0826525
X0845275Y01131
X0920275
X0995275
X09765Y00706
X1051525
X10609Y00381
X1070275Y01131
X1145275
Y00381
X115465
X1239025
X12484
X12389Y00806
X12485Y01131
X12859
X13515
X135165Y01556
X13329Y00806
X1332775Y00381
X134215
X125765Y01556
X1539025Y01131
Y00381
X1464025
X1614025
Y02631
X1539025
X1464025
X1332775
X130965Y02726
X1267025Y03056
X1361025
X134215Y02256
X130465Y01881
X130965Y01786
X1257775Y01881
X1182775
X1107775
X1164025Y02631
X1239025
X1089025
X1014025
X0939025
X0957775Y01881
X1032775
X0882775
X0807775
X0789025Y02631
X0864025
X0714025
X0639025
X0657775Y01881
X0732775
X0582775
X0507775
X0489025Y02631
X0564025
X0414025
X0432775Y01881
X032965
X0320275Y02631
X03109Y01881
X0189025
Y02631
Y03381
X0301525
X0376525
X0451525
X0526525
X0601525
X0676525
X0751525
X0826524
X0901525
X0976525
X1051525
X1126525
X1201525
X1276525
X1314025
X1351525
X1464025
X1539025
X1614025
M30
