M48
;Layer_Color=9474304
;FILE_FORMAT=2:5
INCH,LZ
;TYPE=PLATED
T1F00S00C0.01181
T2F00S00C0.01575
T3F00S00C0.02362
T5F00S00C0.02756
T6F00S00C0.03000
T7F00S00C0.03150
T8F00S00C0.03543
T9F00S00C0.03937
T10F00S00C0.04000
T11F00S00C0.04331
T12F00S00C0.05900
T14F00S00C0.08900
%
T01
X02015Y0372
X0204Y03745
X0214Y0373
X0227Y0379
X02387Y0400019
X0649Y0407
X0879Y04535
X0903Y04395
X091
X0945Y0411
X0948Y04095
X09945
X0998Y0410681
X1166Y0426
X119Y0433
X1193994Y0435006
X1204Y0435
X1214
X1224
X12305Y04405
X1234Y04295
X125946Y0429157
X1262Y04425
X1266Y04405
Y0416
Y0404
X1283Y04055
X1280474Y0408462
X13075Y0418
X13125
X1317Y0416
X1333Y0429
X1353542Y0432042
X13535Y0439
X13575
X1372178Y0433282
X14855Y0413
X15025Y04085
X1536Y04235
X1541Y04285
X0777Y04805
X0762
T02
X0889787Y0449154
X0893134
X089648
X0899827
X0903173
X090652
X0909866
X0913213
Y0454469
X0909866
X090652
X0903173
X0899827
X089648
X0893134
X0889787
T03
X1061094Y04315
X1067
T05
X08695Y0457461
X09565Y04545
X09565Y0446
X09565Y04375
X09565Y0429
X09565Y04205
Y0412
X09865
Y04205
X098675Y0429
X0987Y04375
X09867Y0446
X09867Y04545
X10787Y04214
X11087
X08695Y0477539
T06
X0870398Y04125
Y04225
Y04325
Y04425
T07
X01895Y04085
X01945Y04185
X01995Y04285
X02045Y04385
X02095Y04485
X02295
X02245Y04385
X02195Y04285
X02145Y04185
X02095Y04085
X02345
X02395Y04185
X02445Y04285
X02495Y04385
X02545Y04485
X02745
X02695Y04385
X02645Y04285
X02595Y04185
X02545Y04085
X02795
X02845Y04185
X02895Y04285
X02945Y04385
X02995Y04485
X03095Y04285
X03045Y04185
X02995Y04085
X03245
X03295Y04185
X03345Y04285
X03395Y04385
X03445Y04485
X03645
X03595Y04385
X03545Y04285
X03495Y04185
X03445Y04085
X03695
X03745Y04185
X03795Y04285
X03845Y04385
X03895Y04485
X04095
X04045Y04385
X03995Y04285
X03945Y04185
X03895Y04085
X04145
X04195Y04185
X04245Y04285
X04295Y04385
X04345Y04485
X04545
X04495Y04385
X04445Y04285
X04395Y04185
X04345Y04085
X04595
X04645Y04185
X03145Y04385
X03195Y04485
X04795
X04745Y04385
X04695Y04285
X04895
X04845Y04185
X04795Y04085
X05045
X05095Y04185
X05145Y04285
X05195Y04385
X05245Y04485
X05445
X05395Y04385
X05345Y04285
X05295Y04185
X05245Y04085
X05495
X05545Y04185
X05595Y04285
X05645Y04385
X05695Y04485
X05895
X05845Y04385
X05795Y04285
X05745Y04185
X05695Y04085
X05945
X05995Y04185
X06045Y04285
X06095Y04385
X06145Y04485
X06245Y04285
X06195Y04185
X06145Y04085
X04945Y04385
X04995Y04485
X06345
X06295Y04385
X06545
X06595Y04485
X06795
X06745Y04385
X06695Y04285
X06645Y04185
X06595Y04085
X06395
X06445Y04185
X06495Y04285
X06945
X06995Y04385
X07045Y04485
X07245
X07195Y04385
X07145Y04285
X07095Y04185
X07045Y04085
X06845
X06895Y04185
X0931Y04155
Y04355
X0941
Y04155
X12515Y0383
X1271185
X1271Y04685
X1251315
X13865Y04565
X1396343
X13875Y0437713
Y04185
X1386657Y04
X13965
X143Y04085
X1435Y04185
X144Y04285
X1445Y04385
X145Y04485
X147
X1465Y04385
X146Y04285
X1455Y04185
X145Y04085
X1475
X148Y04185
X1485Y04285
X149Y04385
X1495Y04485
X1515
X151Y04385
X1505Y04285
X15Y04185
X1495Y04085
X152
X1525Y04185
X153Y04285
X1535Y04385
X154Y04485
X156
X1555Y04385
X155Y04285
X1545Y04185
X154Y04085
X1565
X157Y04185
X1575Y04285
X158Y04385
X1585Y04485
X1605
X16Y04385
X1595Y04285
X159Y04185
X1585Y04085
T08
X09365Y04655
X1171Y0458
X1181
X1191
X1201
X1211
X1221
X1231
X1241
Y0398
X1231
X1221
X1211
X1201
X1191
X1181
X1171
X1251
X1261
X1271
X1281
X1291
X1301
X1311
X1321
X1331
X1341
X1351
X1361
Y0458
X1351
X1341
X1331
X1321
X1311
X1301
X1291
X1281
X1271
X1261
X1251
X09365Y04755
T09
X0161441Y032761
X0161441Y0347295
X0218528
Y0337453
Y032761
X1584613Y03282
Y0338043
Y0347885
X16417
Y03282
T10
X1024Y044
X1024Y045
X1034
Y044
X1044Y044
Y045
T11
X1080909Y0431783
Y04495
X11065
X1119Y04495
Y0431783
X11065Y0431783
X1144591Y0431783
Y04495
T12
X0174025Y00481
X0199025Y00581
Y01331
X0174025Y01231
X02959
Y00481
X0305275
X03209Y00581
X0330275
X03334Y01231
X03209Y01331
X03584
X0380275Y01231
X0405275Y01331
X0455275Y01231
X0424025Y00581
X041465
X0399025Y00481
X038965
X04834
X0492775
X05084Y00581
X0517775
X0530275Y01231
X0555275Y01331
X0605275Y01231
X0480275Y01331
X0630275
X0680275Y01231
X0705275Y01331
X0755275Y01231
X0780275Y01331
X076465Y00481
X078965Y00581
X0811525Y00481
X0836525Y00581
X0830275Y01231
X0855275Y01331
X0905275Y01231
X0930275Y01331
X0980275Y01231
X1005275Y01331
X1055275Y01231
X1080275Y01331
X10709Y00581
X10459Y00481
X1130275
X113965
X1155275Y00581
X116465
X1224025Y00481
X12334
X1249025Y00581
X12335Y01231
X1155275Y01331
X1130275Y01231
X12585Y01331
X12709Y01231
X12959Y01331
X13365Y01231
X13615Y01331
X135215Y00581
X1342775
X132715Y00481
X1317775
X12584Y00581
X1449025Y00481
X1474025Y00581
X1524025Y00481
X1549025Y00581
Y01331
X1524025Y01231
X1599025Y00481
X1624025Y00581
Y02831
X1599025Y02731
X1549025Y02831
X1524025Y02731
X1474025Y02831
X1449025Y02731
X1342775Y02831
X1317775Y02731
X132715Y02356
X135215Y02456
X131465Y02081
X128965Y01981
X1267775Y02081
X1242775Y01981
X1192775Y02081
X1167775Y01981
X1117775Y02081
X1099025Y02831
X1149025Y02731
X1174025Y02831
X1224025Y02731
X1249025Y02831
X1074025Y02731
X1024025Y02831
X0999025Y02731
X0949025Y02831
X0942775Y01981
X0967775Y02081
X1017775Y01981
X1042775Y02081
X1092775Y01981
X0892775Y02081
X0867775Y01981
X0817775Y02081
X0792775Y01981
X0799025Y02831
X0849025Y02731
X0874025Y02831
X0924025Y02731
X0774025
X0724025Y02831
X0699025Y02731
X0649025Y02831
X0642775Y01981
X0667775Y02081
X0717775Y01981
X0742775Y02081
X0592775
X0567775Y01981
X0517775Y02081
X0492775Y01981
X0499025Y02831
X0474025Y02731
X0549025
X0574025Y02831
X0624025Y02731
X0424025Y02831
X0399025Y02731
X0330275Y02831
X03209Y02081
X031465Y01981
X033965Y02081
X0417775Y01981
X0442775Y02081
X02959Y01981
X0305275Y02731
X0199025Y02831
X0174025Y02731
Y01981
X0199025Y02081
Y03581
X0174025Y03481
X0286525
X0311525Y03581
X0361525Y03481
X0386525Y03581
X0436525Y03481
X0461525Y03581
X0511525Y03481
X0536525Y03581
X0586525Y03481
X0611525Y03581
X0661525Y03481
X0686525Y03581
X0736525Y03481
X0761525Y03581
X0811524Y03481
X0836524Y03581
X0886525Y03481
X0911525Y03581
X0961525Y03481
X0986525Y03581
X1036525Y03481
X1061525Y03581
X1111525Y03481
X1136525Y03581
X1186525Y03481
X1211525Y03581
X1261525Y03481
X1286525Y03581
X1299025Y03481
X1324025Y03581
X1336525Y03481
X1361525Y03581
X1449025Y03481
X1474025Y03581
X1524025Y03481
X1549025Y03581
X1599025Y03481
X1624025Y03581
T14
X0189Y00755
X1014Y0038
X15695Y00755
X1492051Y03005
X1295201Y02245
X09015
X0507799
X01645Y03885
X0655833
X1147165
X16385
Y047125
X1147166Y04715
X0655833
X01645
M30
