M48
;Layer_Color=9474304
;FILE_FORMAT=4:4
METRIC,LZ
T2F00S00C5.0800
%
G90
G05
T02
G00X0416941Y-00025145
M15
G01X04172254Y-00024986
G01X04177906Y-00024349
G01X04183452Y-00023083
G01X0418882Y-00021204
G01X04193945Y-00018737
G01X0419876Y-0001571
G01X04203206Y-00012165
G01X04207228Y-00008143
G01X04210776Y-00003695
G01X04213802Y00001121
G01X0421627Y00006246
G01X04218148Y00011614
G01X04219414Y00017159
G01X0422005Y00022811
G01X0422021Y00025655
G01X0422021Y0120485
G01X0422005Y01207694
G01X04219414Y01213346
G01X04218148Y01218892
G01X04216268Y0122426
G01X04213802Y01229384
G01X04210775Y012342
G01X04207229Y01238647
G01X04203208Y01242668
G01X0419876Y01246215
G01X04193945Y01249241
G01X0418882Y01251709
G01X0418345Y01253588
G01X04177906Y01254853
G01X04172254Y0125549
G01X0416941Y0125565
G01X0041021Y01255649
G01X00407366Y01255489
G01X00401714Y01254852
G01X00396169Y01253587
G01X003908Y01251708
G01X00385675Y0124924
G01X0038086Y01246214
G01X00376413Y01242668
G01X00372391Y01238646
G01X00368845Y01234199
G01X00365819Y01229383
G01X00363351Y01224259
G01X00361472Y0121889
G01X00360206Y01213345
G01X0035957Y01207693
G01X0035941Y01204849
G01X0035941Y00025654
G01X0035957Y0002281
G01X00360207Y00017158
G01X00361472Y00011613
G01X00363351Y00006244
G01X00365819Y0000112
G01X00368845Y-00003696
G01X00372391Y-00008143
G01X00376413Y-00012165
G01X0038086Y-00015711
G01X00385676Y-00018737
G01X003908Y-00021205
G01X00396169Y-00023084
G01X00401714Y-00024349
G01X00407366Y-00024986
G01X0041021Y-00025146
G01X0416941Y-00025145
M16
M17
M30
