%TF.GenerationSoftware,Altium Limited,Altium Designer,22.1.2 (22)*%
G04 Layer_Color=8388736*
%FSLAX45Y45*%
%MOMM*%
%TF.SameCoordinates,F114383E-4EF1-40AE-95FF-7B5D4795C035*%
%TF.FilePolarity,Negative*%
%TF.FileFunction,Soldermask,Top*%
%TF.Part,Single*%
G01*
G75*
%TA.AperFunction,ComponentPad*%
%ADD11C,3.96000*%
%TA.AperFunction,NonConductor*%
%ADD12C,0.25400*%
D11*
X22898100Y5702300D02*
D03*
X12898100D02*
D03*
X32898099D02*
D03*
X37898099Y8182700D02*
D03*
X22898100D02*
D03*
X7898100D02*
D03*
X4178300Y9867900D02*
D03*
Y11976100D02*
D03*
X41617899Y9867900D02*
D03*
X29138000D02*
D03*
X16658157Y11976100D02*
D03*
Y9867900D02*
D03*
X4800600Y1917700D02*
D03*
X25755600Y965200D02*
D03*
X39865302Y1917700D02*
D03*
X29138016Y11976100D02*
D03*
X41617899Y11969750D02*
D03*
D12*
X4356100Y728796D02*
Y576445D01*
X4432275D01*
X4457667Y601837D01*
Y703404D01*
X4432275Y728796D01*
X4356100D01*
X4584626Y576445D02*
X4533843D01*
X4508451Y601837D01*
Y652620D01*
X4533843Y678012D01*
X4584626D01*
X4610018Y652620D01*
Y627229D01*
X4508451D01*
X4660801Y576445D02*
X4736977D01*
X4762369Y601837D01*
X4736977Y627229D01*
X4686193D01*
X4660801Y652620D01*
X4686193Y678012D01*
X4762369D01*
X4813152Y576445D02*
X4863936D01*
X4838544D01*
Y678012D01*
X4813152D01*
X4990895Y525662D02*
X5016286D01*
X5041678Y551053D01*
Y678012D01*
X4965503D01*
X4940111Y652620D01*
Y601837D01*
X4965503Y576445D01*
X5041678D01*
X5092462D02*
Y678012D01*
X5168637D01*
X5194029Y652620D01*
Y576445D01*
X5320988D02*
X5270204D01*
X5244812Y601837D01*
Y652620D01*
X5270204Y678012D01*
X5320988D01*
X5346380Y652620D01*
Y627229D01*
X5244812D01*
X5498730Y728796D02*
Y576445D01*
X5422555D01*
X5397163Y601837D01*
Y652620D01*
X5422555Y678012D01*
X5498730D01*
X5701865Y728796D02*
Y576445D01*
X5778040D01*
X5803432Y601837D01*
Y627229D01*
X5778040Y652620D01*
X5701865D01*
X5778040D01*
X5803432Y678012D01*
Y703404D01*
X5778040Y728796D01*
X5701865D01*
X5854215Y678012D02*
Y601837D01*
X5879607Y576445D01*
X5955783D01*
Y551053D01*
X5930391Y525662D01*
X5904999D01*
X5955783Y576445D02*
Y678012D01*
X6260484Y728796D02*
X6158917D01*
Y576445D01*
X6260484D01*
X6158917Y652620D02*
X6209700D01*
X6311268Y576445D02*
X6362051D01*
X6336659D01*
Y728796D01*
X6311268D01*
X6438226Y576445D02*
X6489010D01*
X6463618D01*
Y728796D01*
X6438226D01*
X6590577Y678012D02*
X6641361D01*
X6666752Y652620D01*
Y576445D01*
X6590577D01*
X6565185Y601837D01*
X6590577Y627229D01*
X6666752D01*
X4356100Y383448D02*
Y281881D01*
Y332664D01*
X4381492Y358056D01*
X4406883Y383448D01*
X4432275D01*
X4584626Y281881D02*
X4533843D01*
X4508451Y307273D01*
Y358056D01*
X4533843Y383448D01*
X4584626D01*
X4610018Y358056D01*
Y332664D01*
X4508451D01*
X4660801Y383448D02*
X4711585Y281881D01*
X4762369Y383448D01*
X4889328Y281881D02*
Y434232D01*
X4813152Y358056D01*
X4914719D01*
X4457667Y38100D02*
X4356100D01*
X4457667Y139667D01*
Y165059D01*
X4432275Y190451D01*
X4381492D01*
X4356100Y165059D01*
X4508451D02*
X4533843Y190451D01*
X4584626D01*
X4610018Y165059D01*
Y63492D01*
X4584626Y38100D01*
X4533843D01*
X4508451Y63492D01*
Y165059D01*
X4762369Y38100D02*
X4660801D01*
X4762369Y139667D01*
Y165059D01*
X4736977Y190451D01*
X4686193D01*
X4660801Y165059D01*
X4813152Y38100D02*
X4863936D01*
X4838544D01*
Y190451D01*
X4813152Y165059D01*
X4940111Y114275D02*
X5041678D01*
X5194029Y38100D02*
X5092462D01*
X5194029Y139667D01*
Y165059D01*
X5168637Y190451D01*
X5117854D01*
X5092462Y165059D01*
X5244812D02*
X5270204Y190451D01*
X5320988D01*
X5346380Y165059D01*
Y63492D01*
X5320988Y38100D01*
X5270204D01*
X5244812Y63492D01*
Y165059D01*
X5498730Y38100D02*
X5397163D01*
X5498730Y139667D01*
Y165059D01*
X5473339Y190451D01*
X5422555D01*
X5397163Y165059D01*
X5651081Y38100D02*
X5549514D01*
X5651081Y139667D01*
Y165059D01*
X5625689Y190451D01*
X5574906D01*
X5549514Y165059D01*
%TF.MD5,5a26ff3fb74e08225167947054a0d880*%
M02*
