%TF.GenerationSoftware,Altium Limited,Altium Designer,22.1.2 (22)*%
G04 Layer_Color=0*
%FSLAX45Y45*%
%MOMM*%
%TF.SameCoordinates,F114383E-4EF1-40AE-95FF-7B5D4795C035*%
%TF.FilePolarity,Positive*%
%TF.FileFunction,Profile,NP*%
%TF.Part,Single*%
G01*
G75*
%TA.AperFunction,Profile*%
%ADD13C,0.02540*%
D13*
X41694101Y2547D02*
X41750623Y8916D01*
X41804309Y27701D01*
X41852466Y57962D01*
X41892688Y98181D01*
X41922949Y146341D01*
X41941733Y200027D01*
X41948099Y256547D01*
Y9641847D01*
Y10073647D01*
Y12048497D01*
X41941733Y12105017D01*
X41922943Y12158704D01*
X41892682Y12206864D01*
X41852466Y12247082D01*
X41804309Y12277343D01*
X41750620Y12296129D01*
X41694101Y12302497D01*
X29095697Y12302495D01*
X29019498D01*
X20764497Y12302494D01*
X13735049Y12302492D01*
X7162799Y12302491D01*
X4102099D01*
X4045579Y12296123D01*
X3991891Y12277337D01*
X3943733Y12247076D01*
X3903514Y12206857D01*
X3873253Y12158698D01*
X3854467Y12105011D01*
X3848099Y12048491D01*
X3848099Y9686291D01*
X3848101Y256541D01*
X3854469Y200021D01*
X3873255Y146334D01*
X3903516Y98174D01*
X3943735Y57955D01*
X3991893Y27695D01*
X4045581Y8909D01*
X4102101Y2541D01*
X6223001Y2541D01*
X35496500Y2546D01*
X41694101Y2547D01*
%TF.MD5,8e2522df49e5d9a9a6d7e311b206e842*%
M02*
