%TF.GenerationSoftware,Altium Limited,Altium Designer,22.1.2 (22)*%
G04 Layer_Physical_Order=2*
G04 Layer_Color=16711680*
%FSLAX45Y45*%
%MOMM*%
%TF.SameCoordinates,F114383E-4EF1-40AE-95FF-7B5D4795C035*%
%TF.FilePolarity,Positive*%
%TF.FileFunction,Copper,L2,Bot,Signal*%
%TF.Part,Single*%
G01*
G75*
%TA.AperFunction,ComponentPad*%
%ADD10C,3.81000*%
G36*
X41746051Y12276124D02*
X41795404Y12258855D01*
X41839673Y12231040D01*
X41876639Y12194071D01*
X41904456Y12149800D01*
X41921729Y12100451D01*
X41927710Y12047352D01*
Y10073647D01*
Y9641847D01*
Y257692D01*
X41921729Y204594D01*
X41904459Y155243D01*
X41876645Y110975D01*
X41839673Y74005D01*
X41795404Y46189D01*
X41746054Y28921D01*
X41692953Y22938D01*
X35496500Y22937D01*
X6223001Y22932D01*
X4103246Y22931D01*
X4050147Y28914D01*
X4000796Y46183D01*
X3956529Y73998D01*
X3919559Y110968D01*
X3891743Y155237D01*
X3874474Y204587D01*
X3868492Y257686D01*
X3868490Y9686291D01*
X3868490Y12047346D01*
X3874472Y12100444D01*
X3891741Y12149795D01*
X3919557Y12194063D01*
X3956527Y12231034D01*
X4000794Y12258849D01*
X4050145Y12276118D01*
X4103244Y12282100D01*
X7162799D01*
X13735049Y12282101D01*
X20764497Y12282103D01*
X29019498Y12282104D01*
X29095697D01*
X41692953Y12282106D01*
X41746051Y12276124D01*
D02*
G37*
%LPC*%
G36*
X29158029Y12179300D02*
X29118002D01*
X29078745Y12171491D01*
X29041766Y12156174D01*
X29008484Y12133936D01*
X28980182Y12105632D01*
X28957944Y12072351D01*
X28942624Y12035371D01*
X28934818Y11996113D01*
Y11956087D01*
X28942624Y11916829D01*
X28957944Y11879849D01*
X28980182Y11846568D01*
X29008484Y11818264D01*
X29041766Y11796026D01*
X29078745Y11780709D01*
X29118002Y11772900D01*
X29158029D01*
X29197287Y11780709D01*
X29234268Y11796026D01*
X29267548Y11818264D01*
X29295853Y11846568D01*
X29318091Y11879849D01*
X29333408Y11916829D01*
X29341217Y11956087D01*
Y11996113D01*
X29333408Y12035371D01*
X29318091Y12072351D01*
X29295853Y12105632D01*
X29267548Y12133936D01*
X29234268Y12156174D01*
X29197287Y12171491D01*
X29158029Y12179300D01*
D02*
G37*
G36*
X16678172D02*
X16638145D01*
X16598888Y12171491D01*
X16561906Y12156174D01*
X16528625Y12133936D01*
X16500322Y12105632D01*
X16478085Y12072351D01*
X16462767Y12035371D01*
X16454958Y11996113D01*
Y11956087D01*
X16462767Y11916829D01*
X16478085Y11879849D01*
X16500322Y11846568D01*
X16528625Y11818264D01*
X16561906Y11796026D01*
X16598888Y11780709D01*
X16638145Y11772900D01*
X16678172D01*
X16717429Y11780709D01*
X16754408Y11796026D01*
X16787691Y11818264D01*
X16815994Y11846568D01*
X16838232Y11879849D01*
X16853549Y11916829D01*
X16861359Y11956087D01*
Y11996113D01*
X16853549Y12035371D01*
X16838232Y12072351D01*
X16815994Y12105632D01*
X16787691Y12133936D01*
X16754408Y12156174D01*
X16717429Y12171491D01*
X16678172Y12179300D01*
D02*
G37*
G36*
X4198313D02*
X4158287D01*
X4119029Y12171491D01*
X4082049Y12156174D01*
X4048768Y12133936D01*
X4020464Y12105632D01*
X3998226Y12072351D01*
X3982909Y12035371D01*
X3975100Y11996113D01*
Y11956087D01*
X3982909Y11916829D01*
X3998226Y11879849D01*
X4020464Y11846568D01*
X4048768Y11818264D01*
X4082049Y11796026D01*
X4119029Y11780709D01*
X4158287Y11772900D01*
X4198313D01*
X4237571Y11780709D01*
X4274551Y11796026D01*
X4307832Y11818264D01*
X4336136Y11846568D01*
X4358374Y11879849D01*
X4373691Y11916829D01*
X4381500Y11956087D01*
Y11996113D01*
X4373691Y12035371D01*
X4358374Y12072351D01*
X4336136Y12105632D01*
X4307832Y12133936D01*
X4274551Y12156174D01*
X4237571Y12171491D01*
X4198313Y12179300D01*
D02*
G37*
G36*
X41637912Y12172950D02*
X41597888D01*
X41558630Y12165141D01*
X41521649Y12149824D01*
X41488367Y12127586D01*
X41460065Y12099282D01*
X41437827Y12066001D01*
X41422510Y12029021D01*
X41414700Y11989763D01*
Y11949737D01*
X41422510Y11910479D01*
X41437827Y11873499D01*
X41460065Y11840218D01*
X41488367Y11811914D01*
X41521649Y11789676D01*
X41558630Y11774359D01*
X41597888Y11766550D01*
X41637912D01*
X41677170Y11774359D01*
X41714151Y11789676D01*
X41747433Y11811914D01*
X41775735Y11840218D01*
X41797974Y11873499D01*
X41813290Y11910479D01*
X41821100Y11949737D01*
Y11989763D01*
X41813290Y12029021D01*
X41797974Y12066001D01*
X41775735Y12099282D01*
X41747433Y12127586D01*
X41714151Y12149824D01*
X41677170Y12165141D01*
X41637912Y12172950D01*
D02*
G37*
G36*
Y10071100D02*
X41597888D01*
X41558630Y10063291D01*
X41521649Y10047974D01*
X41488367Y10025736D01*
X41460065Y9997432D01*
X41437827Y9964151D01*
X41422510Y9927171D01*
X41414700Y9887913D01*
Y9847887D01*
X41422510Y9808629D01*
X41437827Y9771649D01*
X41460065Y9738368D01*
X41488367Y9710064D01*
X41521649Y9687826D01*
X41558630Y9672509D01*
X41597888Y9664700D01*
X41637912D01*
X41677170Y9672509D01*
X41714151Y9687826D01*
X41747433Y9710064D01*
X41775735Y9738368D01*
X41797974Y9771649D01*
X41813290Y9808629D01*
X41821100Y9847887D01*
Y9887913D01*
X41813290Y9927171D01*
X41797974Y9964151D01*
X41775735Y9997432D01*
X41747433Y10025736D01*
X41714151Y10047974D01*
X41677170Y10063291D01*
X41637912Y10071100D01*
D02*
G37*
G36*
X29158014D02*
X29117987D01*
X29078729Y10063291D01*
X29041748Y10047974D01*
X29008469Y10025736D01*
X28980164Y9997432D01*
X28957925Y9964151D01*
X28942609Y9927171D01*
X28934799Y9887913D01*
Y9847887D01*
X28942609Y9808629D01*
X28957925Y9771649D01*
X28980164Y9738368D01*
X29008469Y9710064D01*
X29041748Y9687826D01*
X29078729Y9672509D01*
X29117987Y9664700D01*
X29158014D01*
X29197272Y9672509D01*
X29234250Y9687826D01*
X29267532Y9710064D01*
X29295837Y9738368D01*
X29318073Y9771649D01*
X29333392Y9808629D01*
X29341199Y9847887D01*
Y9887913D01*
X29333392Y9927171D01*
X29318073Y9964151D01*
X29295837Y9997432D01*
X29267532Y10025736D01*
X29234250Y10047974D01*
X29197272Y10063291D01*
X29158014Y10071100D01*
D02*
G37*
G36*
X16678172D02*
X16638145D01*
X16598888Y10063291D01*
X16561906Y10047974D01*
X16528625Y10025736D01*
X16500322Y9997432D01*
X16478085Y9964151D01*
X16462767Y9927171D01*
X16454958Y9887913D01*
Y9847887D01*
X16462767Y9808629D01*
X16478085Y9771649D01*
X16500322Y9738368D01*
X16528625Y9710064D01*
X16561906Y9687826D01*
X16598888Y9672509D01*
X16638145Y9664700D01*
X16678172D01*
X16717429Y9672509D01*
X16754408Y9687826D01*
X16787691Y9710064D01*
X16815994Y9738368D01*
X16838232Y9771649D01*
X16853549Y9808629D01*
X16861359Y9847887D01*
Y9887913D01*
X16853549Y9927171D01*
X16838232Y9964151D01*
X16815994Y9997432D01*
X16787691Y10025736D01*
X16754408Y10047974D01*
X16717429Y10063291D01*
X16678172Y10071100D01*
D02*
G37*
G36*
X4198313D02*
X4158287D01*
X4119029Y10063291D01*
X4082049Y10047974D01*
X4048768Y10025736D01*
X4020464Y9997432D01*
X3998226Y9964151D01*
X3982909Y9927171D01*
X3975100Y9887913D01*
Y9847887D01*
X3982909Y9808629D01*
X3998226Y9771649D01*
X4020464Y9738368D01*
X4048768Y9710064D01*
X4082049Y9687826D01*
X4119029Y9672509D01*
X4158287Y9664700D01*
X4198313D01*
X4237571Y9672509D01*
X4274551Y9687826D01*
X4307832Y9710064D01*
X4336136Y9738368D01*
X4358374Y9771649D01*
X4373691Y9808629D01*
X4381500Y9847887D01*
Y9887913D01*
X4373691Y9927171D01*
X4358374Y9964151D01*
X4336136Y9997432D01*
X4307832Y10025736D01*
X4274551Y10047974D01*
X4237571Y10063291D01*
X4198313Y10071100D01*
D02*
G37*
G36*
X37918112Y8385900D02*
X37878088D01*
X37838828Y8378091D01*
X37801849Y8362773D01*
X37768567Y8340536D01*
X37740265Y8312232D01*
X37718027Y8278951D01*
X37702710Y8241971D01*
X37694901Y8202713D01*
Y8162686D01*
X37702710Y8123429D01*
X37718027Y8086449D01*
X37740265Y8053168D01*
X37768567Y8024864D01*
X37801849Y8002626D01*
X37838828Y7987309D01*
X37878088Y7979500D01*
X37918112D01*
X37957370Y7987309D01*
X37994351Y8002626D01*
X38027631Y8024864D01*
X38055936Y8053168D01*
X38078174Y8086449D01*
X38093491Y8123429D01*
X38101300Y8162686D01*
Y8202713D01*
X38093491Y8241971D01*
X38078174Y8278951D01*
X38055936Y8312232D01*
X38027631Y8340536D01*
X37994351Y8362773D01*
X37957370Y8378091D01*
X37918112Y8385900D01*
D02*
G37*
G36*
X22918114D02*
X22878087D01*
X22838829Y8378091D01*
X22801849Y8362773D01*
X22768568Y8340536D01*
X22740263Y8312232D01*
X22718027Y8278951D01*
X22702708Y8241971D01*
X22694901Y8202713D01*
Y8162686D01*
X22702708Y8123429D01*
X22718027Y8086449D01*
X22740263Y8053168D01*
X22768568Y8024864D01*
X22801849Y8002626D01*
X22838829Y7987309D01*
X22878087Y7979500D01*
X22918114D01*
X22957372Y7987309D01*
X22994351Y8002626D01*
X23027632Y8024864D01*
X23055936Y8053168D01*
X23078174Y8086449D01*
X23093491Y8123429D01*
X23101300Y8162686D01*
Y8202713D01*
X23093491Y8241971D01*
X23078174Y8278951D01*
X23055936Y8312232D01*
X23027632Y8340536D01*
X22994351Y8362773D01*
X22957372Y8378091D01*
X22918114Y8385900D01*
D02*
G37*
G36*
X7918113D02*
X7878087D01*
X7838829Y8378091D01*
X7801849Y8362773D01*
X7768568Y8340536D01*
X7740264Y8312232D01*
X7718026Y8278951D01*
X7702709Y8241971D01*
X7694900Y8202713D01*
Y8162686D01*
X7702709Y8123429D01*
X7718026Y8086449D01*
X7740264Y8053168D01*
X7768568Y8024864D01*
X7801849Y8002626D01*
X7838829Y7987309D01*
X7878087Y7979500D01*
X7918113D01*
X7957371Y7987309D01*
X7994351Y8002626D01*
X8027632Y8024864D01*
X8055936Y8053168D01*
X8078174Y8086449D01*
X8093491Y8123429D01*
X8101300Y8162686D01*
Y8202713D01*
X8093491Y8241971D01*
X8078174Y8278951D01*
X8055936Y8312232D01*
X8027632Y8340536D01*
X7994351Y8362773D01*
X7957371Y8378091D01*
X7918113Y8385900D01*
D02*
G37*
G36*
X32918112Y5905500D02*
X32878088D01*
X32838828Y5897691D01*
X32801849Y5882374D01*
X32768567Y5860136D01*
X32740265Y5831832D01*
X32718027Y5798551D01*
X32702710Y5761571D01*
X32694901Y5722313D01*
Y5682287D01*
X32702710Y5643029D01*
X32718027Y5606049D01*
X32740265Y5572768D01*
X32768567Y5544464D01*
X32801849Y5522226D01*
X32838828Y5506909D01*
X32878088Y5499100D01*
X32918112D01*
X32957370Y5506909D01*
X32994351Y5522226D01*
X33027631Y5544464D01*
X33055936Y5572768D01*
X33078174Y5606049D01*
X33093491Y5643029D01*
X33101300Y5682287D01*
Y5722313D01*
X33093491Y5761571D01*
X33078174Y5798551D01*
X33055936Y5831832D01*
X33027631Y5860136D01*
X32994351Y5882374D01*
X32957370Y5897691D01*
X32918112Y5905500D01*
D02*
G37*
G36*
X22918114D02*
X22878087D01*
X22838829Y5897691D01*
X22801849Y5882374D01*
X22768568Y5860136D01*
X22740263Y5831832D01*
X22718027Y5798551D01*
X22702708Y5761571D01*
X22694901Y5722313D01*
Y5682287D01*
X22702708Y5643029D01*
X22718027Y5606049D01*
X22740263Y5572768D01*
X22768568Y5544464D01*
X22801849Y5522226D01*
X22838829Y5506909D01*
X22878087Y5499100D01*
X22918114D01*
X22957372Y5506909D01*
X22994351Y5522226D01*
X23027632Y5544464D01*
X23055936Y5572768D01*
X23078174Y5606049D01*
X23093491Y5643029D01*
X23101300Y5682287D01*
Y5722313D01*
X23093491Y5761571D01*
X23078174Y5798551D01*
X23055936Y5831832D01*
X23027632Y5860136D01*
X22994351Y5882374D01*
X22957372Y5897691D01*
X22918114Y5905500D01*
D02*
G37*
G36*
X12918114D02*
X12878087D01*
X12838829Y5897691D01*
X12801849Y5882374D01*
X12768568Y5860136D01*
X12740264Y5831832D01*
X12718026Y5798551D01*
X12702709Y5761571D01*
X12694900Y5722313D01*
Y5682287D01*
X12702709Y5643029D01*
X12718026Y5606049D01*
X12740264Y5572768D01*
X12768568Y5544464D01*
X12801849Y5522226D01*
X12838829Y5506909D01*
X12878087Y5499100D01*
X12918114D01*
X12957372Y5506909D01*
X12994351Y5522226D01*
X13027632Y5544464D01*
X13055936Y5572768D01*
X13078172Y5606049D01*
X13093491Y5643029D01*
X13101300Y5682287D01*
Y5722313D01*
X13093491Y5761571D01*
X13078172Y5798551D01*
X13055936Y5831832D01*
X13027632Y5860136D01*
X12994351Y5882374D01*
X12957372Y5897691D01*
X12918114Y5905500D01*
D02*
G37*
G36*
X39885312Y2120900D02*
X39845288D01*
X39806030Y2113091D01*
X39769049Y2097774D01*
X39735767Y2075536D01*
X39707465Y2047232D01*
X39685226Y2013951D01*
X39669910Y1976971D01*
X39662100Y1937713D01*
Y1897687D01*
X39669910Y1858429D01*
X39685226Y1821449D01*
X39707465Y1788168D01*
X39735767Y1759864D01*
X39769049Y1737626D01*
X39806030Y1722309D01*
X39845288Y1714500D01*
X39885312D01*
X39924570Y1722309D01*
X39961551Y1737626D01*
X39994833Y1759864D01*
X40023135Y1788168D01*
X40045374Y1821449D01*
X40060690Y1858429D01*
X40068500Y1897687D01*
Y1937713D01*
X40060690Y1976971D01*
X40045374Y2013951D01*
X40023135Y2047232D01*
X39994833Y2075536D01*
X39961551Y2097774D01*
X39924570Y2113091D01*
X39885312Y2120900D01*
D02*
G37*
G36*
X4820613D02*
X4780587D01*
X4741329Y2113091D01*
X4704349Y2097774D01*
X4671068Y2075536D01*
X4642764Y2047232D01*
X4620526Y2013951D01*
X4605209Y1976971D01*
X4597400Y1937713D01*
Y1897687D01*
X4605209Y1858429D01*
X4620526Y1821449D01*
X4642764Y1788168D01*
X4671068Y1759864D01*
X4704349Y1737626D01*
X4741329Y1722309D01*
X4780587Y1714500D01*
X4820613D01*
X4859871Y1722309D01*
X4896851Y1737626D01*
X4930132Y1759864D01*
X4958436Y1788168D01*
X4980674Y1821449D01*
X4995991Y1858429D01*
X5003800Y1897687D01*
Y1937713D01*
X4995991Y1976971D01*
X4980674Y2013951D01*
X4958436Y2047232D01*
X4930132Y2075536D01*
X4896851Y2097774D01*
X4859871Y2113091D01*
X4820613Y2120900D01*
D02*
G37*
G36*
X25775613Y1168400D02*
X25735587D01*
X25696329Y1160591D01*
X25659348Y1145274D01*
X25626068Y1123036D01*
X25597765Y1094732D01*
X25575526Y1061451D01*
X25560210Y1024471D01*
X25552400Y985213D01*
Y945187D01*
X25560210Y905929D01*
X25575526Y868949D01*
X25597765Y835668D01*
X25626068Y807364D01*
X25659348Y785126D01*
X25696329Y769809D01*
X25735587Y762000D01*
X25775613D01*
X25814871Y769809D01*
X25851852Y785126D01*
X25885132Y807364D01*
X25913437Y835668D01*
X25935675Y868949D01*
X25950992Y905929D01*
X25958801Y945187D01*
Y985213D01*
X25950992Y1024471D01*
X25935675Y1061451D01*
X25913437Y1094732D01*
X25885132Y1123036D01*
X25851852Y1145274D01*
X25814871Y1160591D01*
X25775613Y1168400D01*
D02*
G37*
%LPD*%
D10*
X22898100Y5702300D02*
D03*
X12898100D02*
D03*
X32898099D02*
D03*
X37898099Y8182700D02*
D03*
X22898100D02*
D03*
X7898100D02*
D03*
X4178300Y9867900D02*
D03*
Y11976100D02*
D03*
X41617899Y9867900D02*
D03*
X29138000D02*
D03*
X16658157Y11976100D02*
D03*
Y9867900D02*
D03*
X4800600Y1917700D02*
D03*
X25755600Y965200D02*
D03*
X39865302Y1917700D02*
D03*
X29138016Y11976100D02*
D03*
X41617899Y11969750D02*
D03*
%TF.MD5,311334a310363e47f12b30dabe85abc8*%
M02*
