%TF.GenerationSoftware,Altium Limited,Altium Designer,22.1.2 (22)*%
G04 Layer_Color=8388736*
%FSLAX26Y26*%
%MOIN*%
%TF.SameCoordinates,6AB8E791-3C66-40CF-9B94-9E67D8B32DB7*%
%TF.FilePolarity,Negative*%
%TF.FileFunction,Soldermask,Top*%
%TF.Part,Single*%
G01*
G75*
%TA.AperFunction,ComponentPad*%
%ADD23C,0.025591*%
G04:AMPARAMS|DCode=24|XSize=35.433mil|YSize=94.488mil|CornerRadius=17.716mil|HoleSize=0mil|Usage=FLASHONLY|Rotation=180.000|XOffset=0mil|YOffset=0mil|HoleType=Round|Shape=RoundedRectangle|*
%AMROUNDEDRECTD24*
21,1,0.035433,0.059055,0,0,180.0*
21,1,0.000000,0.094488,0,0,180.0*
1,1,0.035433,0.000000,0.029528*
1,1,0.035433,0.000000,0.029528*
1,1,0.035433,0.000000,-0.029528*
1,1,0.035433,0.000000,-0.029528*
%
%ADD24ROUNDEDRECTD24*%
G04:AMPARAMS|DCode=25|XSize=35.433mil|YSize=66.929mil|CornerRadius=17.716mil|HoleSize=0mil|Usage=FLASHONLY|Rotation=180.000|XOffset=0mil|YOffset=0mil|HoleType=Round|Shape=RoundedRectangle|*
%AMROUNDEDRECTD25*
21,1,0.035433,0.031496,0,0,180.0*
21,1,0.000000,0.066929,0,0,180.0*
1,1,0.035433,0.000000,0.015748*
1,1,0.035433,0.000000,0.015748*
1,1,0.035433,0.000000,-0.015748*
1,1,0.035433,0.000000,-0.015748*
%
%ADD25ROUNDEDRECTD25*%
%ADD26R,0.025591X0.025591*%
%ADD45C,0.065906*%
%ADD46C,0.045276*%
%ADD48R,0.068898X0.068898*%
G04:AMPARAMS|DCode=49|XSize=68.898mil|YSize=68.898mil|CornerRadius=34.449mil|HoleSize=0mil|Usage=FLASHONLY|Rotation=0.000|XOffset=0mil|YOffset=0mil|HoleType=Round|Shape=RoundedRectangle|*
%AMROUNDEDRECTD49*
21,1,0.068898,0.000000,0,0,0.0*
21,1,0.000000,0.068898,0,0,0.0*
1,1,0.068898,0.000000,0.000000*
1,1,0.068898,0.000000,0.000000*
1,1,0.068898,0.000000,0.000000*
1,1,0.068898,0.000000,0.000000*
%
%ADD49ROUNDEDRECTD49*%
%ADD50R,0.084646X0.084646*%
%ADD51C,0.084646*%
%ADD52R,0.131890X0.084646*%
%ADD53C,0.155906*%
%ADD54C,0.064961*%
%ADD55R,0.064961X0.064961*%
%ADD56C,0.061024*%
G04:AMPARAMS|DCode=57|XSize=61.024mil|YSize=61.024mil|CornerRadius=30.512mil|HoleSize=0mil|Usage=FLASHONLY|Rotation=180.000|XOffset=0mil|YOffset=0mil|HoleType=Round|Shape=RoundedRectangle|*
%AMROUNDEDRECTD57*
21,1,0.061024,0.000000,0,0,180.0*
21,1,0.000000,0.061024,0,0,180.0*
1,1,0.061024,0.000000,0.000000*
1,1,0.061024,0.000000,0.000000*
1,1,0.061024,0.000000,0.000000*
1,1,0.061024,0.000000,0.000000*
%
%ADD57ROUNDEDRECTD57*%
%ADD58C,0.076772*%
%ADD59R,0.076772X0.076772*%
%ADD60C,0.068898*%
%ADD61C,0.067008*%
%ADD62C,0.059134*%
G04:AMPARAMS|DCode=63|XSize=59.134mil|YSize=59.134mil|CornerRadius=29.567mil|HoleSize=0mil|Usage=FLASHONLY|Rotation=180.000|XOffset=0mil|YOffset=0mil|HoleType=Round|Shape=RoundedRectangle|*
%AMROUNDEDRECTD63*
21,1,0.059134,0.000000,0,0,180.0*
21,1,0.000000,0.059134,0,0,180.0*
1,1,0.059134,0.000000,0.000000*
1,1,0.059134,0.000000,0.000000*
1,1,0.059134,0.000000,0.000000*
1,1,0.059134,0.000000,0.000000*
%
%ADD63ROUNDEDRECTD63*%
%ADD64C,0.082756*%
%ADD65R,0.068898X0.068898*%
G04:AMPARAMS|DCode=66|XSize=68.898mil|YSize=68.898mil|CornerRadius=34.449mil|HoleSize=0mil|Usage=FLASHONLY|Rotation=270.000|XOffset=0mil|YOffset=0mil|HoleType=Round|Shape=RoundedRectangle|*
%AMROUNDEDRECTD66*
21,1,0.068898,0.000000,0,0,270.0*
21,1,0.000000,0.068898,0,0,270.0*
1,1,0.068898,0.000000,0.000000*
1,1,0.068898,0.000000,0.000000*
1,1,0.068898,0.000000,0.000000*
1,1,0.068898,0.000000,0.000000*
%
%ADD66ROUNDEDRECTD66*%
%ADD67R,0.070945X0.070945*%
%ADD68C,0.070945*%
%ADD69C,0.051260*%
%ADD70R,0.051260X0.051260*%
%TA.AperFunction,ViaPad*%
%ADD71C,0.029528*%
%TA.AperFunction,ComponentPad*%
%ADD80C,0.060630*%
D23*
X9031732Y4491536D02*
D03*
X8998268D02*
D03*
X9098662Y4544686D02*
D03*
X9132126D02*
D03*
X9065196D02*
D03*
X8964804D02*
D03*
X9031732D02*
D03*
X8998268D02*
D03*
X8964804Y4491536D02*
D03*
X9098662D02*
D03*
X9065196D02*
D03*
X8931338Y4544686D02*
D03*
X8897874Y4491536D02*
D03*
Y4544686D02*
D03*
X8931338Y4491536D02*
D03*
D24*
X9185276Y4530118D02*
D03*
X8844724D02*
D03*
D25*
X9185276Y4663190D02*
D03*
X8844724D02*
D03*
D26*
X9132126Y4491536D02*
D03*
D45*
X6015250Y106000D02*
D03*
Y706000D02*
D03*
X10515250Y106000D02*
D03*
Y706000D02*
D03*
X12389000Y806000D02*
D03*
Y1406000D02*
D03*
X13329000Y806000D02*
D03*
Y1406000D02*
D03*
X13516500Y2156000D02*
D03*
Y1556000D02*
D03*
X12576500D02*
D03*
Y2156000D02*
D03*
X13610250Y3656000D02*
D03*
Y3056000D02*
D03*
X12670250Y3656000D02*
D03*
Y3056000D02*
D03*
X9765004Y706000D02*
D03*
Y106000D02*
D03*
X5827996Y706000D02*
D03*
Y106000D02*
D03*
X8703976Y4125000D02*
D03*
Y4225000D02*
D03*
Y4325000D02*
D03*
Y4425000D02*
D03*
X3954000Y1406000D02*
D03*
Y806000D02*
D03*
X3014000Y1406000D02*
D03*
Y806000D02*
D03*
X13696500Y2726000D02*
D03*
Y1786000D02*
D03*
X13096500Y2726000D02*
D03*
Y1786000D02*
D03*
D46*
X8065250Y381000D02*
D03*
X8465250D02*
D03*
X8265250D02*
D03*
X12659000Y1131000D02*
D03*
X12859000D02*
D03*
X13059000D02*
D03*
X13315000D02*
D03*
X13715000D02*
D03*
X13515000D02*
D03*
X12485000D02*
D03*
X12685000D02*
D03*
X12285000D02*
D03*
X8265236Y3381000D02*
D03*
X8065236D02*
D03*
X8465236D02*
D03*
X15190250Y1131000D02*
D03*
X15390250D02*
D03*
X15590250D02*
D03*
X12846500Y1881000D02*
D03*
X13246500D02*
D03*
X13046500D02*
D03*
X13340250Y3381000D02*
D03*
X12940250D02*
D03*
X13140250D02*
D03*
X7796500Y381000D02*
D03*
X7996500D02*
D03*
X7596500D02*
D03*
X14840250Y3381000D02*
D03*
X14640250D02*
D03*
X14440250D02*
D03*
X6215250D02*
D03*
X6015250D02*
D03*
X5815250D02*
D03*
X13527750Y381000D02*
D03*
X13327750D02*
D03*
X13127750D02*
D03*
X12590250D02*
D03*
X12390250D02*
D03*
X12190250D02*
D03*
X11652750D02*
D03*
X11452750D02*
D03*
X11252750D02*
D03*
X5277750D02*
D03*
X5077750D02*
D03*
X4877750D02*
D03*
X4340250D02*
D03*
X4140250D02*
D03*
X3940250D02*
D03*
X3402750D02*
D03*
X3202750D02*
D03*
X3002750D02*
D03*
X16340250D02*
D03*
X16140249D02*
D03*
X15940250D02*
D03*
X15590250D02*
D03*
X15390250D02*
D03*
X15190250D02*
D03*
X14840250D02*
D03*
X14640250D02*
D03*
X14440250D02*
D03*
X13621500D02*
D03*
X13421500D02*
D03*
X13221500D02*
D03*
X12684000D02*
D03*
X12484000D02*
D03*
X12284000D02*
D03*
X11746500D02*
D03*
X11546500D02*
D03*
X11346500D02*
D03*
X10809000D02*
D03*
X10609000D02*
D03*
X10409000D02*
D03*
X5184000D02*
D03*
X4984000D02*
D03*
X4784000D02*
D03*
X4246500D02*
D03*
X4046500D02*
D03*
X3846500D02*
D03*
X3309000D02*
D03*
X3109000D02*
D03*
X2909000D02*
D03*
X2090250D02*
D03*
X1890250D02*
D03*
X1690250D02*
D03*
X3309000Y1131000D02*
D03*
X3109000D02*
D03*
X2909000D02*
D03*
X11652750D02*
D03*
X11452750D02*
D03*
X11252750D02*
D03*
X10902750D02*
D03*
X10702750D02*
D03*
X10502750D02*
D03*
X10152750D02*
D03*
X9952750D02*
D03*
X9752750D02*
D03*
X9402750D02*
D03*
X9202750D02*
D03*
X9002750D02*
D03*
X8652750D02*
D03*
X8452750D02*
D03*
X8252750D02*
D03*
X7902750D02*
D03*
X7702750D02*
D03*
X7502750D02*
D03*
X7152750D02*
D03*
X6952750D02*
D03*
X6752750D02*
D03*
X6402750D02*
D03*
X6202750D02*
D03*
X6002750D02*
D03*
X5652750D02*
D03*
X5452750D02*
D03*
X5252750D02*
D03*
X4902750D02*
D03*
X4702750D02*
D03*
X4502750D02*
D03*
X4152750D02*
D03*
X3952750D02*
D03*
X3752750D02*
D03*
X3684000D02*
D03*
X3484000D02*
D03*
X3284000D02*
D03*
X2090250D02*
D03*
X1890250D02*
D03*
X1690250D02*
D03*
X13621500Y2256000D02*
D03*
X13421500D02*
D03*
X13221500D02*
D03*
X12777750Y1881000D02*
D03*
X12577750D02*
D03*
X12377750D02*
D03*
X12027750D02*
D03*
X11827750D02*
D03*
X11627750D02*
D03*
X11277750D02*
D03*
X11077750D02*
D03*
X10877750D02*
D03*
X10527750D02*
D03*
X10327750D02*
D03*
X10127750D02*
D03*
X9777750D02*
D03*
X9577750D02*
D03*
X9377750D02*
D03*
X9027750D02*
D03*
X8827750D02*
D03*
X8627750D02*
D03*
X8277750D02*
D03*
X8077750D02*
D03*
X7877750D02*
D03*
X7527750D02*
D03*
X7327750D02*
D03*
X7127750D02*
D03*
X6777750D02*
D03*
X6577750D02*
D03*
X6377750D02*
D03*
X6027750D02*
D03*
X5827750D02*
D03*
X5627750D02*
D03*
X5277750D02*
D03*
X5077750D02*
D03*
X4877750D02*
D03*
X4527750D02*
D03*
X4327750D02*
D03*
X4127750D02*
D03*
X3496500D02*
D03*
X3296500D02*
D03*
X3109000D02*
D03*
X2909000D02*
D03*
X2090250D02*
D03*
X1890250D02*
D03*
X1690250D02*
D03*
X16340250Y2631000D02*
D03*
X16140249D02*
D03*
X15940250D02*
D03*
X15590250D02*
D03*
X15390250D02*
D03*
X15190250D02*
D03*
X14840250D02*
D03*
X14640250D02*
D03*
X14440250D02*
D03*
X13527750D02*
D03*
X13327750D02*
D03*
X13127750D02*
D03*
X12590250D02*
D03*
X12390250D02*
D03*
X12190250D02*
D03*
X11840250D02*
D03*
X11640250D02*
D03*
X11440250D02*
D03*
X11090250D02*
D03*
X10890250D02*
D03*
X10690250D02*
D03*
X10340250D02*
D03*
X10140250D02*
D03*
X9940250D02*
D03*
X9590250D02*
D03*
X9390250D02*
D03*
X9190250D02*
D03*
X8840250D02*
D03*
X8640250D02*
D03*
X8440250D02*
D03*
X8090250D02*
D03*
X7890250D02*
D03*
X7690250D02*
D03*
X7340250D02*
D03*
X7140250D02*
D03*
X6940250D02*
D03*
X6590250D02*
D03*
X6390250D02*
D03*
X6190250D02*
D03*
X5840250D02*
D03*
X5640250D02*
D03*
X5440250D02*
D03*
X5090250D02*
D03*
X4890250D02*
D03*
X4690250D02*
D03*
X4340250D02*
D03*
X4140250D02*
D03*
X3940250D02*
D03*
X3402750D02*
D03*
X3202750D02*
D03*
X3002750D02*
D03*
X2090250D02*
D03*
X1890250D02*
D03*
X1690250D02*
D03*
X16340250Y3381000D02*
D03*
X16140249D02*
D03*
X15940250D02*
D03*
X15590250D02*
D03*
X15390250D02*
D03*
X15190250D02*
D03*
X13715250D02*
D03*
X13515250D02*
D03*
X13315250D02*
D03*
X12965250D02*
D03*
X12765250D02*
D03*
X12565250D02*
D03*
X12215250D02*
D03*
X12015250D02*
D03*
X11815250D02*
D03*
X11465250D02*
D03*
X11265250D02*
D03*
X11065250D02*
D03*
X10715250D02*
D03*
X10515250D02*
D03*
X10315250D02*
D03*
X9965250D02*
D03*
X9765250D02*
D03*
X9565250D02*
D03*
X9215250D02*
D03*
X9015250D02*
D03*
X8815250D02*
D03*
X7715250D02*
D03*
X7515250D02*
D03*
X7315250D02*
D03*
X6965250D02*
D03*
X6765250D02*
D03*
X6565250D02*
D03*
X5465250D02*
D03*
X5265250D02*
D03*
X5065250D02*
D03*
X4715250D02*
D03*
X4515250D02*
D03*
X4315250D02*
D03*
X3965250D02*
D03*
X3765250D02*
D03*
X3565250D02*
D03*
X3215250D02*
D03*
X3015250D02*
D03*
X2815250D02*
D03*
X2090250D02*
D03*
X1890250D02*
D03*
X1690250D02*
D03*
D48*
X7045000Y4485000D02*
D03*
X15850000D02*
D03*
X15250000Y4185000D02*
D03*
X15200000Y4085000D02*
D03*
X14950000Y4485000D02*
D03*
X14900000Y4385000D02*
D03*
X14850000Y4285000D02*
D03*
X6995000Y4385000D02*
D03*
X6595000Y4485000D02*
D03*
X4145000Y4085000D02*
D03*
X2445000Y4285000D02*
D03*
X2395000Y4185000D02*
D03*
X2345000Y4085000D02*
D03*
X2095000Y4485000D02*
D03*
X15300000Y4285000D02*
D03*
X14800000Y4185000D02*
D03*
X6395000Y4085000D02*
D03*
X5995000Y4185000D02*
D03*
X5595000Y4285000D02*
D03*
X5195000Y4385000D02*
D03*
X4795000Y4485000D02*
D03*
X4595000Y4085000D02*
D03*
X4195000Y4185000D02*
D03*
X3745000D02*
D03*
X3345000Y4285000D02*
D03*
X2945000Y4385000D02*
D03*
X2545000Y4485000D02*
D03*
X2495000Y4385000D02*
D03*
X2045000D02*
D03*
X14750000Y4085000D02*
D03*
X6845000D02*
D03*
X6445000Y4185000D02*
D03*
X6045000Y4285000D02*
D03*
X5645000Y4385000D02*
D03*
X5245000Y4485000D02*
D03*
X5045000Y4085000D02*
D03*
X4645000Y4185000D02*
D03*
X4245000Y4285000D02*
D03*
X3795000D02*
D03*
X3395000Y4385000D02*
D03*
X2995000Y4485000D02*
D03*
X2795000Y4085000D02*
D03*
X1995000Y4285000D02*
D03*
X15650000Y4085000D02*
D03*
X15400000Y4485000D02*
D03*
X15350000Y4385000D02*
D03*
X14500000Y4485000D02*
D03*
X14450000Y4385000D02*
D03*
X6895000Y4185000D02*
D03*
X6495000Y4285000D02*
D03*
X6095000Y4385000D02*
D03*
X5695000Y4485000D02*
D03*
X5495000Y4085000D02*
D03*
X5095000Y4185000D02*
D03*
X4695000Y4285000D02*
D03*
X4295000Y4385000D02*
D03*
X3845000D02*
D03*
X3445000Y4485000D02*
D03*
X3245000Y4085000D02*
D03*
X2845000Y4185000D02*
D03*
X1945000D02*
D03*
X15800000Y4385000D02*
D03*
X15750000Y4285000D02*
D03*
X15700000Y4185000D02*
D03*
X14350000D02*
D03*
X14300000Y4085000D02*
D03*
X14400000Y4285000D02*
D03*
X6945000D02*
D03*
X6545000Y4385000D02*
D03*
X6145000Y4485000D02*
D03*
X5945000Y4085000D02*
D03*
X5545000Y4185000D02*
D03*
X5145000Y4285000D02*
D03*
X4745000Y4385000D02*
D03*
X4345000Y4485000D02*
D03*
X3895000D02*
D03*
X3695000Y4085000D02*
D03*
X3295000Y4185000D02*
D03*
X2895000Y4285000D02*
D03*
X1895000Y4085000D02*
D03*
D49*
X7245000Y4485000D02*
D03*
X16049999D02*
D03*
X15450000Y4185000D02*
D03*
X15400000Y4085000D02*
D03*
X15150000Y4485000D02*
D03*
X15100000Y4385000D02*
D03*
X15050000Y4285000D02*
D03*
X7195000Y4385000D02*
D03*
X6795000Y4485000D02*
D03*
X4345000Y4085000D02*
D03*
X2645000Y4285000D02*
D03*
X2595000Y4185000D02*
D03*
X2545000Y4085000D02*
D03*
X2295000Y4485000D02*
D03*
X15500000Y4285000D02*
D03*
X15000000Y4185000D02*
D03*
X6595000Y4085000D02*
D03*
X6195000Y4185000D02*
D03*
X5795000Y4285000D02*
D03*
X5395000Y4385000D02*
D03*
X4995000Y4485000D02*
D03*
X4795000Y4085000D02*
D03*
X4395000Y4185000D02*
D03*
X3945000D02*
D03*
X3545000Y4285000D02*
D03*
X3145000Y4385000D02*
D03*
X2745000Y4485000D02*
D03*
X2695000Y4385000D02*
D03*
X2245000D02*
D03*
X14950000Y4085000D02*
D03*
X7045000D02*
D03*
X6645000Y4185000D02*
D03*
X6245000Y4285000D02*
D03*
X5845000Y4385000D02*
D03*
X5445000Y4485000D02*
D03*
X5245000Y4085000D02*
D03*
X4845000Y4185000D02*
D03*
X4445000Y4285000D02*
D03*
X3995000D02*
D03*
X3595000Y4385000D02*
D03*
X3195000Y4485000D02*
D03*
X2995000Y4085000D02*
D03*
X2195000Y4285000D02*
D03*
X15850000Y4085000D02*
D03*
X15600000Y4485000D02*
D03*
X15550000Y4385000D02*
D03*
X14700000Y4485000D02*
D03*
X14650000Y4385000D02*
D03*
X7095000Y4185000D02*
D03*
X6695000Y4285000D02*
D03*
X6295000Y4385000D02*
D03*
X5895000Y4485000D02*
D03*
X5695000Y4085000D02*
D03*
X5295000Y4185000D02*
D03*
X4895000Y4285000D02*
D03*
X4495000Y4385000D02*
D03*
X4045000D02*
D03*
X3645000Y4485000D02*
D03*
X3445000Y4085000D02*
D03*
X3045000Y4185000D02*
D03*
X2145000D02*
D03*
X16000000Y4385000D02*
D03*
X15950000Y4285000D02*
D03*
X15900000Y4185000D02*
D03*
X14550000D02*
D03*
X14500000Y4085000D02*
D03*
X14600000Y4285000D02*
D03*
X7145000D02*
D03*
X6745000Y4385000D02*
D03*
X6345000Y4485000D02*
D03*
X6145000Y4085000D02*
D03*
X5745000Y4185000D02*
D03*
X5345000Y4285000D02*
D03*
X4945000Y4385000D02*
D03*
X4545000Y4485000D02*
D03*
X4095000D02*
D03*
X3895000Y4085000D02*
D03*
X3495000Y4185000D02*
D03*
X3095000Y4285000D02*
D03*
X2095000Y4085000D02*
D03*
D50*
X2185276Y3276102D02*
D03*
X15846134Y3478850D02*
D03*
D51*
X2185276Y3374528D02*
D03*
Y3472953D02*
D03*
X1614409Y3276102D02*
D03*
X1614409Y3472953D02*
D03*
X16417000Y3282000D02*
D03*
X15846134D02*
D03*
Y3380426D02*
D03*
X16417000Y3478850D02*
D03*
D52*
X1890000Y3154055D02*
D03*
Y3595000D02*
D03*
X16141411Y3159954D02*
D03*
Y3600898D02*
D03*
D53*
X9015000Y2245000D02*
D03*
X5077992D02*
D03*
X12952008D02*
D03*
X14920512Y3005000D02*
D03*
X1645000Y3885000D02*
D03*
Y4715000D02*
D03*
X16385000Y3885000D02*
D03*
X11471654D02*
D03*
X6558330Y4715000D02*
D03*
Y3885000D02*
D03*
X1890000Y755000D02*
D03*
X10140000Y380000D02*
D03*
X15695000Y755000D02*
D03*
X11471660Y4715000D02*
D03*
X16385000Y4712500D02*
D03*
D54*
X12010000Y3980000D02*
D03*
X11910000D02*
D03*
X11810000D02*
D03*
X12410000D02*
D03*
X12310000D02*
D03*
X12210000D02*
D03*
X12110000D02*
D03*
X11710000Y4580000D02*
D03*
X11910000D02*
D03*
X11810000D02*
D03*
X12410000D02*
D03*
X12110000D02*
D03*
X12010000D02*
D03*
X12310000D02*
D03*
X12210000D02*
D03*
X12910000Y3980000D02*
D03*
X13110000D02*
D03*
X13010000D02*
D03*
X12610000D02*
D03*
X12510000D02*
D03*
X12810000D02*
D03*
X12710000D02*
D03*
X13410000D02*
D03*
X13610000D02*
D03*
X13510000D02*
D03*
X13310000D02*
D03*
X13210000D02*
D03*
X12910000Y4580000D02*
D03*
X12610000D02*
D03*
X12510000D02*
D03*
X12810000D02*
D03*
X12710000D02*
D03*
X13410000D02*
D03*
X13610000D02*
D03*
X13510000D02*
D03*
X13110000D02*
D03*
X13010000D02*
D03*
X13310000D02*
D03*
X13210000D02*
D03*
X13875000Y4185000D02*
D03*
Y4377126D02*
D03*
D55*
X11710000Y3980000D02*
D03*
D56*
X9865000Y4120000D02*
D03*
X8695000Y4775394D02*
D03*
Y4574606D02*
D03*
D57*
X9565000Y4120000D02*
D03*
D58*
X9365000Y4755000D02*
D03*
D59*
Y4655000D02*
D03*
D60*
X13963426Y4565000D02*
D03*
X13865000D02*
D03*
X13965000Y4000000D02*
D03*
X13866574D02*
D03*
D61*
X12710000Y4685000D02*
D03*
X12513150D02*
D03*
X12711850Y3830000D02*
D03*
X12515000D02*
D03*
D62*
X9870000Y4375000D02*
D03*
X9565000Y4290000D02*
D03*
X9865000Y4205000D02*
D03*
X9867000Y4545000D02*
D03*
X9867000Y4460000D02*
D03*
X10787000Y4214000D02*
D03*
D63*
X9565000Y4375000D02*
D03*
X9867500Y4290000D02*
D03*
X9565000Y4205000D02*
D03*
Y4545000D02*
D03*
X9565000Y4460000D02*
D03*
X11087000Y4214000D02*
D03*
D64*
X11065000Y4495000D02*
D03*
Y4317834D02*
D03*
X10809094Y4495000D02*
D03*
Y4317834D02*
D03*
X11445906Y4495001D02*
D03*
Y4317834D02*
D03*
X11190000Y4495001D02*
D03*
Y4317834D02*
D03*
D65*
X9310000Y4355000D02*
D03*
X9410000D02*
D03*
D66*
X9310000Y4155000D02*
D03*
X9410000Y4155000D02*
D03*
D67*
X10440000Y4500000D02*
D03*
D68*
X10340000Y4500000D02*
D03*
X10440000Y4400000D02*
D03*
X10340000Y4400000D02*
D03*
X10240000Y4500000D02*
D03*
X10240000Y4400000D02*
D03*
D69*
X10670000Y4315000D02*
D03*
D70*
X10610944D02*
D03*
D71*
X15360000Y4235000D02*
D03*
X15025000Y4085000D02*
D03*
X15410000Y4285000D02*
D03*
X2270000Y3790000D02*
D03*
X7620000Y4805000D02*
D03*
X7770000D02*
D03*
X2015000Y3720000D02*
D03*
X2040000Y3745000D02*
D03*
X2140000Y3730000D02*
D03*
X9100000Y4395000D02*
D03*
X9030000D02*
D03*
X13721778Y4332817D02*
D03*
X13170000Y4160000D02*
D03*
X11900000Y4330000D02*
D03*
X12594599Y4291569D02*
D03*
X12620000Y4425000D02*
D03*
X12305000Y4405000D02*
D03*
X13575000Y4390000D02*
D03*
X13535000D02*
D03*
X12660000Y4405000D02*
D03*
X13330000Y4290000D02*
D03*
X13535423Y4320423D02*
D03*
X12340000Y4295000D02*
D03*
X13075000Y4180000D02*
D03*
X13125000D02*
D03*
X12660000Y4160000D02*
D03*
Y4040000D02*
D03*
X12240000Y4350000D02*
D03*
X12140000D02*
D03*
X12040000D02*
D03*
X11939936Y4350064D02*
D03*
X11660000Y4260000D02*
D03*
X12830000Y4055000D02*
D03*
X12804738Y4084625D02*
D03*
X9980000Y4106811D02*
D03*
X9450000Y4110000D02*
D03*
X9945000Y4095000D02*
D03*
X9480000D02*
D03*
X14855000Y4130000D02*
D03*
X8790000Y4535000D02*
D03*
X6490000Y4070000D02*
D03*
X2387000Y4000189D02*
D03*
D80*
X8115250Y481000D02*
D03*
X8365250Y581000D02*
D03*
X12709000Y1231000D02*
D03*
X12959000Y1331000D02*
D03*
X13615000D02*
D03*
X13365000Y1231000D02*
D03*
X12335000D02*
D03*
X12585000Y1331000D02*
D03*
X8365236Y3581000D02*
D03*
X8115236Y3481000D02*
D03*
X15240250Y1231000D02*
D03*
X15490250Y1331000D02*
D03*
X13146500Y2081000D02*
D03*
X12896500Y1981000D02*
D03*
X13240250Y3581000D02*
D03*
X12990250Y3481000D02*
D03*
X7896500Y581000D02*
D03*
X7646500Y481000D02*
D03*
X14740250Y3581000D02*
D03*
X14490250Y3481000D02*
D03*
X6115250Y3581000D02*
D03*
X5865250Y3481000D02*
D03*
X13427750Y581000D02*
D03*
X13177750Y481000D02*
D03*
X12490250Y581000D02*
D03*
X12240250Y481000D02*
D03*
X11552750Y581000D02*
D03*
X11302750Y481000D02*
D03*
X5177750Y581000D02*
D03*
X4927750Y481000D02*
D03*
X4240250Y581000D02*
D03*
X3990250Y481000D02*
D03*
X3302750Y581000D02*
D03*
X3052750Y481000D02*
D03*
X16240250Y581000D02*
D03*
X15990250Y481000D02*
D03*
X15490250Y581000D02*
D03*
X15240250Y481000D02*
D03*
X14740250Y581000D02*
D03*
X14490250Y481000D02*
D03*
X13521500Y581000D02*
D03*
X13271500Y481000D02*
D03*
X12584000Y581000D02*
D03*
X12334000Y481000D02*
D03*
X11646500Y581000D02*
D03*
X11396500Y481000D02*
D03*
X10709000Y581000D02*
D03*
X10459000Y481000D02*
D03*
X5084000Y581000D02*
D03*
X4834000Y481000D02*
D03*
X4146500Y581000D02*
D03*
X3896500Y481000D02*
D03*
X3209000Y581000D02*
D03*
X2959000Y481000D02*
D03*
X1990250Y581000D02*
D03*
X1740250Y481000D02*
D03*
X3209000Y1331000D02*
D03*
X2959000Y1231000D02*
D03*
X11552750Y1331000D02*
D03*
X11302750Y1231000D02*
D03*
X10802750Y1331000D02*
D03*
X10552750Y1231000D02*
D03*
X10052750Y1331000D02*
D03*
X9802750Y1231000D02*
D03*
X9302750Y1331000D02*
D03*
X9052750Y1231000D02*
D03*
X8552750Y1331000D02*
D03*
X8302750Y1231000D02*
D03*
X7802750Y1331000D02*
D03*
X7552750Y1231000D02*
D03*
X7052750Y1331000D02*
D03*
X6802750Y1231000D02*
D03*
X6302750Y1331000D02*
D03*
X6052750Y1231000D02*
D03*
X5552750Y1331000D02*
D03*
X5302750Y1231000D02*
D03*
X4802750Y1331000D02*
D03*
X4552750Y1231000D02*
D03*
X4052750Y1331000D02*
D03*
X3802750Y1231000D02*
D03*
X3584000Y1331000D02*
D03*
X3334000Y1231000D02*
D03*
X1990250Y1331000D02*
D03*
X1740250Y1231000D02*
D03*
X13521500Y2456000D02*
D03*
X13271500Y2356000D02*
D03*
X12677750Y2081000D02*
D03*
X12427750Y1981000D02*
D03*
X11927750Y2081000D02*
D03*
X11677750Y1981000D02*
D03*
X11177750Y2081000D02*
D03*
X10927750Y1981000D02*
D03*
X10427750Y2081000D02*
D03*
X10177750Y1981000D02*
D03*
X9677750Y2081000D02*
D03*
X9427750Y1981000D02*
D03*
X8927750Y2081000D02*
D03*
X8677750Y1981000D02*
D03*
X8177750Y2081000D02*
D03*
X7927750Y1981000D02*
D03*
X7427750Y2081000D02*
D03*
X7177750Y1981000D02*
D03*
X6677750Y2081000D02*
D03*
X6427750Y1981000D02*
D03*
X5927750Y2081000D02*
D03*
X5677750Y1981000D02*
D03*
X5177750Y2081000D02*
D03*
X4927750Y1981000D02*
D03*
X4427750Y2081000D02*
D03*
X4177750Y1981000D02*
D03*
X3209000Y2081000D02*
D03*
X3396500D02*
D03*
X3146500Y1981000D02*
D03*
X2959000D02*
D03*
X1990250Y2081000D02*
D03*
X1740250Y1981000D02*
D03*
X16240250Y2831000D02*
D03*
X15990250Y2731000D02*
D03*
X15490250Y2831000D02*
D03*
X15240250Y2731000D02*
D03*
X14740250Y2831000D02*
D03*
X14490250Y2731000D02*
D03*
X13427750Y2831000D02*
D03*
X13177750Y2731000D02*
D03*
X12490250Y2831000D02*
D03*
X12240250Y2731000D02*
D03*
X11740250Y2831000D02*
D03*
X11490250Y2731000D02*
D03*
X10990250Y2831000D02*
D03*
X10740250Y2731000D02*
D03*
X10240250Y2831000D02*
D03*
X9990250Y2731000D02*
D03*
X9490250Y2831000D02*
D03*
X9240250Y2731000D02*
D03*
X8740250Y2831000D02*
D03*
X8490250Y2731000D02*
D03*
X7990250Y2831000D02*
D03*
X7740250Y2731000D02*
D03*
X7240250Y2831000D02*
D03*
X6990250Y2731000D02*
D03*
X6490250Y2831000D02*
D03*
X6240250Y2731000D02*
D03*
X5740250Y2831000D02*
D03*
X5490250Y2731000D02*
D03*
X4990250Y2831000D02*
D03*
X4740250Y2731000D02*
D03*
X4240250Y2831000D02*
D03*
X3990250Y2731000D02*
D03*
X3302750Y2831000D02*
D03*
X3052750Y2731000D02*
D03*
X1990250Y2831000D02*
D03*
X1740250Y2731000D02*
D03*
X16240250Y3581000D02*
D03*
X15990250Y3481000D02*
D03*
X15490250Y3581000D02*
D03*
X15240250Y3481000D02*
D03*
X13615250Y3581000D02*
D03*
X13365250Y3481000D02*
D03*
X12865250Y3581000D02*
D03*
X12615250Y3481000D02*
D03*
X12115250Y3581000D02*
D03*
X11865250Y3481000D02*
D03*
X11365250Y3581000D02*
D03*
X11115250Y3481000D02*
D03*
X10615250Y3581000D02*
D03*
X10365250Y3481000D02*
D03*
X9865250Y3581000D02*
D03*
X9615250Y3481000D02*
D03*
X9115250Y3581000D02*
D03*
X8865250Y3481000D02*
D03*
X7615250Y3581000D02*
D03*
X7365250Y3481000D02*
D03*
X6865250Y3581000D02*
D03*
X6615250Y3481000D02*
D03*
X5365250Y3581000D02*
D03*
X5115250Y3481000D02*
D03*
X4615250Y3581000D02*
D03*
X4365250Y3481000D02*
D03*
X3865250Y3581000D02*
D03*
X3615250Y3481000D02*
D03*
X3115250Y3581000D02*
D03*
X2865250Y3481000D02*
D03*
X1990250Y3581000D02*
D03*
X1740250Y3481000D02*
D03*
%TF.MD5,5791b1709b8ab016e7b8db1a1d240d1d*%
M02*
