%TF.GenerationSoftware,Altium Limited,Altium Designer,22.1.2 (22)*%
G04 Layer_Color=65535*
%FSLAX26Y26*%
%MOIN*%
%TF.SameCoordinates,6AB8E791-3C66-40CF-9B94-9E67D8B32DB7*%
%TF.FilePolarity,Positive*%
%TF.FileFunction,Legend,Top*%
%TF.Part,Single*%
G01*
G75*
%TA.AperFunction,NonConductor*%
%ADD42C,0.005000*%
%ADD72C,0.004724*%
%ADD73C,0.009842*%
%ADD74C,0.023622*%
%ADD75C,0.007874*%
%ADD76C,0.008000*%
%ADD77C,0.010000*%
%ADD78C,0.005906*%
%ADD79C,0.003937*%
D42*
X9905008Y4105005D02*
Y4134995D01*
X9920003D01*
X9925002Y4129997D01*
Y4120000D01*
X9920003Y4115002D01*
X9905008D01*
X9915005D02*
X9925002Y4105005D01*
X9934998Y4129997D02*
X9939997Y4134995D01*
X9949994D01*
X9954992Y4129997D01*
Y4124998D01*
X9949994Y4120000D01*
X9954992Y4115002D01*
Y4110003D01*
X9949994Y4105005D01*
X9939997D01*
X9934998Y4110003D01*
Y4115002D01*
X9939997Y4120000D01*
X9934998Y4124998D01*
Y4129997D01*
X9939997Y4120000D02*
X9949994D01*
X9905000Y4355000D02*
Y4384990D01*
X9919995D01*
X9924994Y4379992D01*
Y4369995D01*
X9919995Y4364997D01*
X9905000D01*
X9914997D02*
X9924994Y4355000D01*
X9934990D02*
X9944987D01*
X9939989D01*
Y4384990D01*
X9934990Y4379992D01*
X9905000Y4270000D02*
Y4299990D01*
X9919995D01*
X9924994Y4294992D01*
Y4284995D01*
X9919995Y4279997D01*
X9905000D01*
X9914997D02*
X9924994Y4270000D01*
X9949986D02*
Y4299990D01*
X9934990Y4284995D01*
X9954984D01*
X9905000Y4190000D02*
Y4219990D01*
X9919995D01*
X9924994Y4214992D01*
Y4204995D01*
X9919995Y4199997D01*
X9905000D01*
X9914997D02*
X9924994Y4190000D01*
X9954984Y4219990D02*
X9934990D01*
Y4204995D01*
X9944987Y4209993D01*
X9949986D01*
X9954984Y4204995D01*
Y4194998D01*
X9949986Y4190000D01*
X9939989D01*
X9934990Y4194998D01*
X9905000Y4525000D02*
Y4554990D01*
X9919995D01*
X9924993Y4549992D01*
Y4539995D01*
X9919995Y4534997D01*
X9905000D01*
X9914997D02*
X9924993Y4525000D01*
X9954984Y4554990D02*
X9944987Y4549992D01*
X9934990Y4539995D01*
Y4529998D01*
X9939989Y4525000D01*
X9949985D01*
X9954984Y4529998D01*
Y4534997D01*
X9949985Y4539995D01*
X9934990D01*
X9905000Y4440000D02*
Y4469990D01*
X9919995D01*
X9924994Y4464992D01*
Y4454995D01*
X9919995Y4449997D01*
X9905000D01*
X9914997D02*
X9924994Y4440000D01*
X9934990Y4469990D02*
X9954984D01*
Y4464992D01*
X9934990Y4444999D01*
Y4440000D01*
D72*
X2008110Y3374528D02*
G03*
X2008110Y3374528I-118110J0D01*
G01*
X16259520Y3380426D02*
G03*
X16259520Y3380426I-118110J0D01*
G01*
X13775591Y4155079D02*
G03*
X13974409Y4155079I99409J0D01*
G01*
Y4407047D02*
G03*
X13775591Y4407047I-99409J0D01*
G01*
X9413642Y4643583D02*
G03*
X9407465Y4770840I-48642J61417D01*
G01*
X9407520Y4664017D02*
G03*
X9407513Y4745989I-42520J40983D01*
G01*
X9322487D02*
G03*
X9322480Y4664017I42513J-40989D01*
G01*
X9322535Y4770840D02*
G03*
X9316358Y4643583I42465J-65840D01*
G01*
X10723936Y4315000D02*
G03*
X10723936Y4315000I-83465J0D01*
G01*
X7076496Y4485394D02*
X7126890D01*
X7086732Y4524370D02*
X7204450Y4523976D01*
X7086732Y4445630D02*
Y4524370D01*
X7087126Y4445630D02*
X7204056D01*
X7204450D02*
Y4523976D01*
X7131614Y4485000D02*
X7167442Y4464134D01*
X7168622D02*
Y4506654D01*
X7127284Y4464134D02*
Y4506654D01*
X7131220Y4485394D02*
X7168622Y4506654D01*
Y4485394D02*
X7212716D01*
X1649842Y3142244D02*
X1811260Y3142244D01*
X1649843Y3606811D02*
X1811260Y3606811D01*
X1968740D02*
X2130158Y3606811D01*
X1968740Y3142244D02*
X2130157D01*
X2130158Y3606811D01*
X2185276Y3224921D02*
X2197087Y3213110D01*
X2173465D02*
X2197087D01*
X2173465D02*
X2185276Y3224921D01*
X1649842Y3142244D02*
X1649843Y3236732D01*
X1649842Y3323346D02*
X1649843Y3425709D01*
X1649842Y3512323D02*
X1649843Y3606811D01*
X1890000Y3394213D02*
X1890000Y3354843D01*
X1870315Y3374528D02*
X1909685D01*
X16381569Y3148142D02*
Y3242630D01*
X16220150Y3148142D02*
X16381569D01*
X16121725Y3380426D02*
X16161097D01*
X16381569Y3329244D02*
Y3431606D01*
X16141411Y3360740D02*
Y3400110D01*
X15901252Y3148142D02*
X16062670D01*
X16381569Y3518220D02*
Y3612710D01*
X16220150D02*
X16381569D01*
X15901252Y3148142D02*
Y3612710D01*
X15834324Y3541842D02*
X15846134Y3530032D01*
X15901252Y3612710D02*
X16062670D01*
X15846134Y3530032D02*
X15857946Y3541842D01*
X15834324D02*
X15857946D01*
X13775590Y4155078D02*
Y4407048D01*
X13974410Y4155078D02*
Y4407048D01*
X15891732Y4524370D02*
X16009447Y4523976D01*
X15973622Y4485394D02*
X16017715D01*
X15936220D02*
X15973622Y4506654D01*
X15932284Y4464134D02*
Y4506654D01*
X15973622Y4464134D02*
Y4506654D01*
X15936614Y4485000D02*
X15972440Y4464134D01*
X16009447Y4445630D02*
Y4523976D01*
X15892126Y4445630D02*
X16009056D01*
X15881496Y4485394D02*
X15931890D01*
X15891732Y4445630D02*
Y4524370D01*
X15291732Y4224370D02*
X15409448Y4223976D01*
X15373622Y4185394D02*
X15417716D01*
X15336220D02*
X15373622Y4206654D01*
X15332284Y4164134D02*
Y4206654D01*
X15373622Y4164134D02*
Y4206654D01*
X15336614Y4185000D02*
X15372442Y4164134D01*
X15409448Y4145630D02*
Y4223976D01*
X15292126Y4145630D02*
X15409056D01*
X15281496Y4185394D02*
X15331890D01*
X15291732Y4145630D02*
Y4224370D01*
X15241732Y4124370D02*
X15359448Y4123976D01*
X15323622Y4085394D02*
X15367716D01*
X15286220D02*
X15323622Y4106654D01*
X15282284Y4064134D02*
Y4106654D01*
X15323622Y4064134D02*
Y4106654D01*
X15286614Y4085000D02*
X15322442Y4064134D01*
X15359448Y4045630D02*
Y4123976D01*
X15242126Y4045630D02*
X15359056D01*
X15231496Y4085394D02*
X15281890D01*
X15241732Y4045630D02*
Y4124370D01*
X14991732Y4524370D02*
X15109448Y4523976D01*
X15073622Y4485394D02*
X15117716D01*
X15036220D02*
X15073622Y4506654D01*
X15032284Y4464134D02*
Y4506654D01*
X15073622Y4464134D02*
Y4506654D01*
X15036614Y4485000D02*
X15072442Y4464134D01*
X15109448Y4445630D02*
Y4523976D01*
X14992126Y4445630D02*
X15109056D01*
X14981496Y4485394D02*
X15031890D01*
X14991732Y4445630D02*
Y4524370D01*
X14941732Y4424370D02*
X15059448Y4423976D01*
X15023622Y4385394D02*
X15067716D01*
X14986220D02*
X15023622Y4406654D01*
X14982284Y4364134D02*
Y4406654D01*
X15023622Y4364134D02*
Y4406654D01*
X14986614Y4385000D02*
X15022442Y4364134D01*
X15059448Y4345630D02*
Y4423976D01*
X14942126Y4345630D02*
X15059056D01*
X14931496Y4385394D02*
X14981890D01*
X14941732Y4345630D02*
Y4424370D01*
X14891732Y4324370D02*
X15009448Y4323976D01*
X14973622Y4285394D02*
X15017716D01*
X14936220D02*
X14973622Y4306654D01*
X14932284Y4264134D02*
Y4306654D01*
X14973622Y4264134D02*
Y4306654D01*
X14936614Y4285000D02*
X14972440Y4264134D01*
X15009448Y4245630D02*
Y4323976D01*
X14892126Y4245630D02*
X15009056D01*
X14881496Y4285394D02*
X14931890D01*
X14891732Y4245630D02*
Y4324370D01*
X7118622Y4385394D02*
X7162716D01*
X7081220D02*
X7118622Y4406654D01*
X7077284Y4364134D02*
Y4406654D01*
X7118622Y4364134D02*
Y4406654D01*
X7081614Y4385000D02*
X7117442Y4364134D01*
X7154450Y4345630D02*
Y4423976D01*
X7037126Y4345630D02*
X7154056D01*
X7036732D02*
Y4424370D01*
X7154450Y4423976D01*
X7026496Y4385394D02*
X7076890D01*
X6718622Y4485394D02*
X6762716D01*
X6681220D02*
X6718622Y4506654D01*
X6677284Y4464134D02*
Y4506654D01*
X6718622Y4464134D02*
Y4506654D01*
X6681614Y4485000D02*
X6717442Y4464134D01*
X6754450Y4445630D02*
Y4523976D01*
X6637126Y4445630D02*
X6754056D01*
X6636732D02*
Y4524370D01*
X6754450Y4523976D01*
X6626496Y4485394D02*
X6676890D01*
X4268622Y4085394D02*
X4312716D01*
X4231220D02*
X4268622Y4106654D01*
X4227284Y4064134D02*
Y4106654D01*
X4268622Y4064134D02*
Y4106654D01*
X4231614Y4085000D02*
X4267442Y4064134D01*
X4304450Y4045630D02*
Y4123976D01*
X4187126Y4045630D02*
X4304056D01*
X4186732D02*
Y4124370D01*
X4304450Y4123976D01*
X4176496Y4085394D02*
X4226890D01*
X2568622Y4285394D02*
X2612716D01*
X2531220D02*
X2568622Y4306654D01*
X2527284Y4264134D02*
Y4306654D01*
X2568622Y4264134D02*
Y4306654D01*
X2531614Y4285000D02*
X2567442Y4264134D01*
X2604448Y4245630D02*
Y4323976D01*
X2487126Y4245630D02*
X2604056D01*
X2486732D02*
Y4324370D01*
X2604448Y4323976D01*
X2476496Y4285394D02*
X2526890D01*
X2518622Y4185394D02*
X2562716D01*
X2481220D02*
X2518622Y4206654D01*
X2477284Y4164134D02*
Y4206654D01*
X2518622Y4164134D02*
Y4206654D01*
X2481614Y4185000D02*
X2517442Y4164134D01*
X2554450Y4145630D02*
Y4223976D01*
X2437126Y4145630D02*
X2554056D01*
X2436732D02*
Y4224370D01*
X2554450Y4223976D01*
X2426496Y4185394D02*
X2476890D01*
X2468622Y4085394D02*
X2512716D01*
X2431220D02*
X2468622Y4106654D01*
X2427284Y4064134D02*
Y4106654D01*
X2468622Y4064134D02*
Y4106654D01*
X2431614Y4085000D02*
X2467442Y4064134D01*
X2504450Y4045630D02*
Y4123976D01*
X2387126Y4045630D02*
X2504056D01*
X2386732D02*
Y4124370D01*
X2504450Y4123976D01*
X2376496Y4085394D02*
X2426890D01*
X2218622Y4485394D02*
X2262716D01*
X2181220D02*
X2218622Y4506654D01*
X2177284Y4464134D02*
Y4506654D01*
X2218622Y4464134D02*
Y4506654D01*
X2181614Y4485000D02*
X2217442Y4464134D01*
X2254450Y4445630D02*
Y4523976D01*
X2137126Y4445630D02*
X2254056D01*
X2136732D02*
Y4524370D01*
X2254450Y4523976D01*
X2126496Y4485394D02*
X2176890D01*
X15423622Y4285394D02*
X15467716D01*
X15386220D02*
X15423622Y4306654D01*
X15382284Y4264134D02*
Y4306654D01*
X15423622Y4264134D02*
Y4306654D01*
X15386614Y4285000D02*
X15422440Y4264134D01*
X15459448Y4245630D02*
Y4323976D01*
X15342126Y4245630D02*
X15459056D01*
X15341732D02*
Y4324370D01*
X15459448Y4323976D01*
X15331496Y4285394D02*
X15381890D01*
X14923622Y4185394D02*
X14967716D01*
X14886220D02*
X14923622Y4206654D01*
X14882284Y4164134D02*
Y4206654D01*
X14923622Y4164134D02*
Y4206654D01*
X14886614Y4185000D02*
X14922440Y4164134D01*
X14959448Y4145630D02*
Y4223976D01*
X14842126Y4145630D02*
X14959056D01*
X14841732D02*
Y4224370D01*
X14959448Y4223976D01*
X14831496Y4185394D02*
X14881890D01*
X6518622Y4085394D02*
X6562716D01*
X6481220D02*
X6518622Y4106654D01*
X6477284Y4064134D02*
Y4106654D01*
X6518622Y4064134D02*
Y4106654D01*
X6481614Y4085000D02*
X6517442Y4064134D01*
X6554450Y4045630D02*
Y4123976D01*
X6437126Y4045630D02*
X6554056D01*
X6436732D02*
Y4124370D01*
X6554450Y4123976D01*
X6426496Y4085394D02*
X6476890D01*
X6118622Y4185394D02*
X6162716D01*
X6081220D02*
X6118622Y4206654D01*
X6077284Y4164134D02*
Y4206654D01*
X6118622Y4164134D02*
Y4206654D01*
X6081614Y4185000D02*
X6117442Y4164134D01*
X6154450Y4145630D02*
Y4223976D01*
X6037126Y4145630D02*
X6154056D01*
X6036732D02*
Y4224370D01*
X6154450Y4223976D01*
X6026496Y4185394D02*
X6076890D01*
X5718622Y4285394D02*
X5762716D01*
X5681220D02*
X5718622Y4306654D01*
X5677284Y4264134D02*
Y4306654D01*
X5718622Y4264134D02*
Y4306654D01*
X5681614Y4285000D02*
X5717442Y4264134D01*
X5754450Y4245630D02*
Y4323976D01*
X5637126Y4245630D02*
X5754056D01*
X5636732D02*
Y4324370D01*
X5754450Y4323976D01*
X5626496Y4285394D02*
X5676890D01*
X5318622Y4385394D02*
X5362716D01*
X5281220D02*
X5318622Y4406654D01*
X5277284Y4364134D02*
Y4406654D01*
X5318622Y4364134D02*
Y4406654D01*
X5281614Y4385000D02*
X5317442Y4364134D01*
X5354450Y4345630D02*
Y4423976D01*
X5237126Y4345630D02*
X5354056D01*
X5236732D02*
Y4424370D01*
X5354450Y4423976D01*
X5226496Y4385394D02*
X5276890D01*
X4918622Y4485394D02*
X4962716D01*
X4881220D02*
X4918622Y4506654D01*
X4877284Y4464134D02*
Y4506654D01*
X4918622Y4464134D02*
Y4506654D01*
X4881614Y4485000D02*
X4917442Y4464134D01*
X4954450Y4445630D02*
Y4523976D01*
X4837126Y4445630D02*
X4954056D01*
X4836732D02*
Y4524370D01*
X4954450Y4523976D01*
X4826496Y4485394D02*
X4876890D01*
X4718622Y4085394D02*
X4762716D01*
X4681220D02*
X4718622Y4106654D01*
X4677284Y4064134D02*
Y4106654D01*
X4718622Y4064134D02*
Y4106654D01*
X4681614Y4085000D02*
X4717442Y4064134D01*
X4754450Y4045630D02*
Y4123976D01*
X4637126Y4045630D02*
X4754056D01*
X4636732D02*
Y4124370D01*
X4754450Y4123976D01*
X4626496Y4085394D02*
X4676890D01*
X4318622Y4185394D02*
X4362716D01*
X4281220D02*
X4318622Y4206654D01*
X4277284Y4164134D02*
Y4206654D01*
X4318622Y4164134D02*
Y4206654D01*
X4281614Y4185000D02*
X4317442Y4164134D01*
X4354450Y4145630D02*
Y4223976D01*
X4237126Y4145630D02*
X4354056D01*
X4236732D02*
Y4224370D01*
X4354450Y4223976D01*
X4226496Y4185394D02*
X4276890D01*
X3868622D02*
X3912716D01*
X3831220D02*
X3868622Y4206654D01*
X3827284Y4164134D02*
Y4206654D01*
X3868622Y4164134D02*
Y4206654D01*
X3831614Y4185000D02*
X3867442Y4164134D01*
X3904450Y4145630D02*
Y4223976D01*
X3787126Y4145630D02*
X3904056D01*
X3786732D02*
Y4224370D01*
X3904450Y4223976D01*
X3776496Y4185394D02*
X3826890D01*
X3468622Y4285394D02*
X3512716D01*
X3431220D02*
X3468622Y4306654D01*
X3427284Y4264134D02*
Y4306654D01*
X3468622Y4264134D02*
Y4306654D01*
X3431614Y4285000D02*
X3467442Y4264134D01*
X3504450Y4245630D02*
Y4323976D01*
X3387126Y4245630D02*
X3504056D01*
X3386732D02*
Y4324370D01*
X3504450Y4323976D01*
X3376496Y4285394D02*
X3426890D01*
X3068622Y4385394D02*
X3112716D01*
X3031220D02*
X3068622Y4406654D01*
X3027284Y4364134D02*
Y4406654D01*
X3068622Y4364134D02*
Y4406654D01*
X3031614Y4385000D02*
X3067442Y4364134D01*
X3104448Y4345630D02*
Y4423976D01*
X2987126Y4345630D02*
X3104056D01*
X2986732D02*
Y4424370D01*
X3104448Y4423976D01*
X2976496Y4385394D02*
X3026890D01*
X2668622Y4485394D02*
X2712716D01*
X2631220D02*
X2668622Y4506654D01*
X2627284Y4464134D02*
Y4506654D01*
X2668622Y4464134D02*
Y4506654D01*
X2631614Y4485000D02*
X2667442Y4464134D01*
X2704450Y4445630D02*
Y4523976D01*
X2587126Y4445630D02*
X2704056D01*
X2586732D02*
Y4524370D01*
X2704450Y4523976D01*
X2576496Y4485394D02*
X2626890D01*
X2618622Y4385394D02*
X2662716D01*
X2581220D02*
X2618622Y4406654D01*
X2577284Y4364134D02*
Y4406654D01*
X2618622Y4364134D02*
Y4406654D01*
X2581614Y4385000D02*
X2617442Y4364134D01*
X2654448Y4345630D02*
Y4423976D01*
X2537126Y4345630D02*
X2654056D01*
X2536732D02*
Y4424370D01*
X2654448Y4423976D01*
X2526496Y4385394D02*
X2576890D01*
X2168622D02*
X2212716D01*
X2131220D02*
X2168622Y4406654D01*
X2127284Y4364134D02*
Y4406654D01*
X2168622Y4364134D02*
Y4406654D01*
X2131614Y4385000D02*
X2167442Y4364134D01*
X2204450Y4345630D02*
Y4423976D01*
X2087126Y4345630D02*
X2204056D01*
X2086732D02*
Y4424370D01*
X2204450Y4423976D01*
X2076496Y4385394D02*
X2126890D01*
X14791732Y4124370D02*
X14909448Y4123976D01*
X14873622Y4085394D02*
X14917716D01*
X14836220D02*
X14873622Y4106654D01*
X14832284Y4064134D02*
Y4106654D01*
X14873622Y4064134D02*
Y4106654D01*
X14836614Y4085000D02*
X14872442Y4064134D01*
X14909448Y4045630D02*
Y4123976D01*
X14792126Y4045630D02*
X14909056D01*
X14781496Y4085394D02*
X14831890D01*
X14791732Y4045630D02*
Y4124370D01*
X6968622Y4085394D02*
X7012716D01*
X6931220D02*
X6968622Y4106654D01*
X6927284Y4064134D02*
Y4106654D01*
X6968622Y4064134D02*
Y4106654D01*
X6931614Y4085000D02*
X6967442Y4064134D01*
X7004448Y4045630D02*
Y4123976D01*
X6887126Y4045630D02*
X7004056D01*
X6886732D02*
Y4124370D01*
X7004448Y4123976D01*
X6876496Y4085394D02*
X6926890D01*
X6568622Y4185394D02*
X6612716D01*
X6531220D02*
X6568622Y4206654D01*
X6527284Y4164134D02*
Y4206654D01*
X6568622Y4164134D02*
Y4206654D01*
X6531614Y4185000D02*
X6567442Y4164134D01*
X6604450Y4145630D02*
Y4223976D01*
X6487126Y4145630D02*
X6604056D01*
X6486732D02*
Y4224370D01*
X6604450Y4223976D01*
X6476496Y4185394D02*
X6526890D01*
X6168622Y4285394D02*
X6212716D01*
X6131220D02*
X6168622Y4306654D01*
X6127284Y4264134D02*
Y4306654D01*
X6168622Y4264134D02*
Y4306654D01*
X6131614Y4285000D02*
X6167442Y4264134D01*
X6204450Y4245630D02*
Y4323976D01*
X6087126Y4245630D02*
X6204056D01*
X6086732D02*
Y4324370D01*
X6204450Y4323976D01*
X6076496Y4285394D02*
X6126890D01*
X5768622Y4385394D02*
X5812716D01*
X5731220D02*
X5768622Y4406654D01*
X5727284Y4364134D02*
Y4406654D01*
X5768622Y4364134D02*
Y4406654D01*
X5731614Y4385000D02*
X5767442Y4364134D01*
X5804448Y4345630D02*
Y4423976D01*
X5687126Y4345630D02*
X5804056D01*
X5686732D02*
Y4424370D01*
X5804448Y4423976D01*
X5676496Y4385394D02*
X5726890D01*
X5368622Y4485394D02*
X5412716D01*
X5331220D02*
X5368622Y4506654D01*
X5327284Y4464134D02*
Y4506654D01*
X5368622Y4464134D02*
Y4506654D01*
X5331614Y4485000D02*
X5367442Y4464134D01*
X5404450Y4445630D02*
Y4523976D01*
X5287126Y4445630D02*
X5404056D01*
X5286732D02*
Y4524370D01*
X5404450Y4523976D01*
X5276496Y4485394D02*
X5326890D01*
X5168622Y4085394D02*
X5212716D01*
X5131220D02*
X5168622Y4106654D01*
X5127284Y4064134D02*
Y4106654D01*
X5168622Y4064134D02*
Y4106654D01*
X5131614Y4085000D02*
X5167442Y4064134D01*
X5204450Y4045630D02*
Y4123976D01*
X5087126Y4045630D02*
X5204056D01*
X5086732D02*
Y4124370D01*
X5204450Y4123976D01*
X5076496Y4085394D02*
X5126890D01*
X4768622Y4185394D02*
X4812716D01*
X4731220D02*
X4768622Y4206654D01*
X4727284Y4164134D02*
Y4206654D01*
X4768622Y4164134D02*
Y4206654D01*
X4731614Y4185000D02*
X4767442Y4164134D01*
X4804450Y4145630D02*
Y4223976D01*
X4687126Y4145630D02*
X4804056D01*
X4686732D02*
Y4224370D01*
X4804450Y4223976D01*
X4676496Y4185394D02*
X4726890D01*
X4368622Y4285394D02*
X4412716D01*
X4331220D02*
X4368622Y4306654D01*
X4327284Y4264134D02*
Y4306654D01*
X4368622Y4264134D02*
Y4306654D01*
X4331614Y4285000D02*
X4367442Y4264134D01*
X4404450Y4245630D02*
Y4323976D01*
X4287126Y4245630D02*
X4404056D01*
X4286732D02*
Y4324370D01*
X4404450Y4323976D01*
X4276496Y4285394D02*
X4326890D01*
X3918622D02*
X3962716D01*
X3881220D02*
X3918622Y4306654D01*
X3877284Y4264134D02*
Y4306654D01*
X3918622Y4264134D02*
Y4306654D01*
X3881614Y4285000D02*
X3917442Y4264134D01*
X3954450Y4245630D02*
Y4323976D01*
X3837126Y4245630D02*
X3954056D01*
X3836732D02*
Y4324370D01*
X3954450Y4323976D01*
X3826496Y4285394D02*
X3876890D01*
X3518622Y4385394D02*
X3562716D01*
X3481220D02*
X3518622Y4406654D01*
X3477284Y4364134D02*
Y4406654D01*
X3518622Y4364134D02*
Y4406654D01*
X3481614Y4385000D02*
X3517442Y4364134D01*
X3554450Y4345630D02*
Y4423976D01*
X3437126Y4345630D02*
X3554056D01*
X3436732D02*
Y4424370D01*
X3554450Y4423976D01*
X3426496Y4385394D02*
X3476890D01*
X3118622Y4485394D02*
X3162716D01*
X3081220D02*
X3118622Y4506654D01*
X3077284Y4464134D02*
Y4506654D01*
X3118622Y4464134D02*
Y4506654D01*
X3081614Y4485000D02*
X3117442Y4464134D01*
X3154450Y4445630D02*
Y4523976D01*
X3037126Y4445630D02*
X3154056D01*
X3036732D02*
Y4524370D01*
X3154450Y4523976D01*
X3026496Y4485394D02*
X3076890D01*
X2918622Y4085394D02*
X2962716D01*
X2881220D02*
X2918622Y4106654D01*
X2877284Y4064134D02*
Y4106654D01*
X2918622Y4064134D02*
Y4106654D01*
X2881614Y4085000D02*
X2917442Y4064134D01*
X2954450Y4045630D02*
Y4123976D01*
X2837126Y4045630D02*
X2954056D01*
X2836732D02*
Y4124370D01*
X2954450Y4123976D01*
X2826496Y4085394D02*
X2876890D01*
X2118622Y4285394D02*
X2162716D01*
X2081220D02*
X2118622Y4306654D01*
X2077284Y4264134D02*
Y4306654D01*
X2118622Y4264134D02*
Y4306654D01*
X2081614Y4285000D02*
X2117442Y4264134D01*
X2154450Y4245630D02*
Y4323976D01*
X2037126Y4245630D02*
X2154056D01*
X2036732D02*
Y4324370D01*
X2154450Y4323976D01*
X2026496Y4285394D02*
X2076890D01*
X15691732Y4124370D02*
X15809448Y4123976D01*
X15773622Y4085394D02*
X15817716D01*
X15736220D02*
X15773622Y4106654D01*
X15732284Y4064134D02*
Y4106654D01*
X15773622Y4064134D02*
Y4106654D01*
X15736614Y4085000D02*
X15772442Y4064134D01*
X15809448Y4045630D02*
Y4123976D01*
X15692126Y4045630D02*
X15809056D01*
X15681496Y4085394D02*
X15731890D01*
X15691732Y4045630D02*
Y4124370D01*
X15523622Y4485394D02*
X15567716D01*
X15486220D02*
X15523622Y4506654D01*
X15482284Y4464134D02*
Y4506654D01*
X15523622Y4464134D02*
Y4506654D01*
X15486614Y4485000D02*
X15522442Y4464134D01*
X15559448Y4445630D02*
Y4523976D01*
X15442126Y4445630D02*
X15559056D01*
X15441732D02*
Y4524370D01*
X15559448Y4523976D01*
X15431496Y4485394D02*
X15481890D01*
X15473622Y4385394D02*
X15517716D01*
X15436220D02*
X15473622Y4406654D01*
X15432284Y4364134D02*
Y4406654D01*
X15473622Y4364134D02*
Y4406654D01*
X15436614Y4385000D02*
X15472440Y4364134D01*
X15509448Y4345630D02*
Y4423976D01*
X15392126Y4345630D02*
X15509056D01*
X15391732D02*
Y4424370D01*
X15509448Y4423976D01*
X15381496Y4385394D02*
X15431890D01*
X14623622Y4485394D02*
X14667716D01*
X14586220D02*
X14623622Y4506654D01*
X14582284Y4464134D02*
Y4506654D01*
X14623622Y4464134D02*
Y4506654D01*
X14586614Y4485000D02*
X14622440Y4464134D01*
X14659448Y4445630D02*
Y4523976D01*
X14542126Y4445630D02*
X14659056D01*
X14541732D02*
Y4524370D01*
X14659448Y4523976D01*
X14531496Y4485394D02*
X14581890D01*
X14573622Y4385394D02*
X14617716D01*
X14536220D02*
X14573622Y4406654D01*
X14532284Y4364134D02*
Y4406654D01*
X14573622Y4364134D02*
Y4406654D01*
X14536614Y4385000D02*
X14572440Y4364134D01*
X14609448Y4345630D02*
Y4423976D01*
X14492126Y4345630D02*
X14609056D01*
X14491732D02*
Y4424370D01*
X14609448Y4423976D01*
X14481496Y4385394D02*
X14531890D01*
X7018622Y4185394D02*
X7062716D01*
X6981220D02*
X7018622Y4206654D01*
X6977284Y4164134D02*
Y4206654D01*
X7018622Y4164134D02*
Y4206654D01*
X6981614Y4185000D02*
X7017442Y4164134D01*
X7054450Y4145630D02*
Y4223976D01*
X6937126Y4145630D02*
X7054056D01*
X6936732D02*
Y4224370D01*
X7054450Y4223976D01*
X6926496Y4185394D02*
X6976890D01*
X6618622Y4285394D02*
X6662716D01*
X6581220D02*
X6618622Y4306654D01*
X6577284Y4264134D02*
Y4306654D01*
X6618622Y4264134D02*
Y4306654D01*
X6581614Y4285000D02*
X6617442Y4264134D01*
X6654450Y4245630D02*
Y4323976D01*
X6537126Y4245630D02*
X6654056D01*
X6536732D02*
Y4324370D01*
X6654450Y4323976D01*
X6526496Y4285394D02*
X6576890D01*
X6218622Y4385394D02*
X6262716D01*
X6181220D02*
X6218622Y4406654D01*
X6177284Y4364134D02*
Y4406654D01*
X6218622Y4364134D02*
Y4406654D01*
X6181614Y4385000D02*
X6217442Y4364134D01*
X6254450Y4345630D02*
Y4423976D01*
X6137126Y4345630D02*
X6254056D01*
X6136732D02*
Y4424370D01*
X6254450Y4423976D01*
X6126496Y4385394D02*
X6176890D01*
X5818622Y4485394D02*
X5862716D01*
X5781220D02*
X5818622Y4506654D01*
X5777284Y4464134D02*
Y4506654D01*
X5818622Y4464134D02*
Y4506654D01*
X5781614Y4485000D02*
X5817442Y4464134D01*
X5854450Y4445630D02*
Y4523976D01*
X5737126Y4445630D02*
X5854056D01*
X5736732D02*
Y4524370D01*
X5854450Y4523976D01*
X5726496Y4485394D02*
X5776890D01*
X5618622Y4085394D02*
X5662716D01*
X5581220D02*
X5618622Y4106654D01*
X5577284Y4064134D02*
Y4106654D01*
X5618622Y4064134D02*
Y4106654D01*
X5581614Y4085000D02*
X5617442Y4064134D01*
X5654450Y4045630D02*
Y4123976D01*
X5537126Y4045630D02*
X5654056D01*
X5536732D02*
Y4124370D01*
X5654450Y4123976D01*
X5526496Y4085394D02*
X5576890D01*
X5218622Y4185394D02*
X5262716D01*
X5181220D02*
X5218622Y4206654D01*
X5177284Y4164134D02*
Y4206654D01*
X5218622Y4164134D02*
Y4206654D01*
X5181614Y4185000D02*
X5217442Y4164134D01*
X5254450Y4145630D02*
Y4223976D01*
X5137126Y4145630D02*
X5254056D01*
X5136732D02*
Y4224370D01*
X5254450Y4223976D01*
X5126496Y4185394D02*
X5176890D01*
X4818622Y4285394D02*
X4862716D01*
X4781220D02*
X4818622Y4306654D01*
X4777284Y4264134D02*
Y4306654D01*
X4818622Y4264134D02*
Y4306654D01*
X4781614Y4285000D02*
X4817442Y4264134D01*
X4854450Y4245630D02*
Y4323976D01*
X4737126Y4245630D02*
X4854056D01*
X4736732D02*
Y4324370D01*
X4854450Y4323976D01*
X4726496Y4285394D02*
X4776890D01*
X4418622Y4385394D02*
X4462716D01*
X4381220D02*
X4418622Y4406654D01*
X4377284Y4364134D02*
Y4406654D01*
X4418622Y4364134D02*
Y4406654D01*
X4381614Y4385000D02*
X4417442Y4364134D01*
X4454450Y4345630D02*
Y4423976D01*
X4337126Y4345630D02*
X4454056D01*
X4336732D02*
Y4424370D01*
X4454450Y4423976D01*
X4326496Y4385394D02*
X4376890D01*
X3968622D02*
X4012716D01*
X3931220D02*
X3968622Y4406654D01*
X3927284Y4364134D02*
Y4406654D01*
X3968622Y4364134D02*
Y4406654D01*
X3931614Y4385000D02*
X3967442Y4364134D01*
X4004450Y4345630D02*
Y4423976D01*
X3887126Y4345630D02*
X4004056D01*
X3886732D02*
Y4424370D01*
X4004450Y4423976D01*
X3876496Y4385394D02*
X3926890D01*
X3568622Y4485394D02*
X3612716D01*
X3531220D02*
X3568622Y4506654D01*
X3527284Y4464134D02*
Y4506654D01*
X3568622Y4464134D02*
Y4506654D01*
X3531614Y4485000D02*
X3567442Y4464134D01*
X3604450Y4445630D02*
Y4523976D01*
X3487126Y4445630D02*
X3604056D01*
X3486732D02*
Y4524370D01*
X3604450Y4523976D01*
X3476496Y4485394D02*
X3526890D01*
X3368622Y4085394D02*
X3412716D01*
X3331220D02*
X3368622Y4106654D01*
X3327284Y4064134D02*
Y4106654D01*
X3368622Y4064134D02*
Y4106654D01*
X3331614Y4085000D02*
X3367442Y4064134D01*
X3404450Y4045630D02*
Y4123976D01*
X3287126Y4045630D02*
X3404056D01*
X3286732D02*
Y4124370D01*
X3404450Y4123976D01*
X3276496Y4085394D02*
X3326890D01*
X2968622Y4185394D02*
X3012716D01*
X2931220D02*
X2968622Y4206654D01*
X2927284Y4164134D02*
Y4206654D01*
X2968622Y4164134D02*
Y4206654D01*
X2931614Y4185000D02*
X2967442Y4164134D01*
X3004450Y4145630D02*
Y4223976D01*
X2887126Y4145630D02*
X3004056D01*
X2886732D02*
Y4224370D01*
X3004450Y4223976D01*
X2876496Y4185394D02*
X2926890D01*
X2068622D02*
X2112716D01*
X2031220D02*
X2068622Y4206654D01*
X2027284Y4164134D02*
Y4206654D01*
X2068622Y4164134D02*
Y4206654D01*
X2031614Y4185000D02*
X2067442Y4164134D01*
X2104450Y4145630D02*
Y4223976D01*
X1987126Y4145630D02*
X2104056D01*
X1986732D02*
Y4224370D01*
X2104450Y4223976D01*
X1976496Y4185394D02*
X2026890D01*
X15923622Y4385394D02*
X15967716D01*
X15886220D02*
X15923622Y4406654D01*
X15882284Y4364134D02*
Y4406654D01*
X15923622Y4364134D02*
Y4406654D01*
X15886614Y4385000D02*
X15922440Y4364134D01*
X15959448Y4345630D02*
Y4423976D01*
X15842126Y4345630D02*
X15959056D01*
X15841732D02*
Y4424370D01*
X15959448Y4423976D01*
X15831496Y4385394D02*
X15881890D01*
X15873622Y4285394D02*
X15917716D01*
X15836220D02*
X15873622Y4306654D01*
X15832284Y4264134D02*
Y4306654D01*
X15873622Y4264134D02*
Y4306654D01*
X15836614Y4285000D02*
X15872440Y4264134D01*
X15909448Y4245630D02*
Y4323976D01*
X15792126Y4245630D02*
X15909056D01*
X15791732D02*
Y4324370D01*
X15909448Y4323976D01*
X15781496Y4285394D02*
X15831890D01*
X15823622Y4185394D02*
X15867716D01*
X15786220D02*
X15823622Y4206654D01*
X15782284Y4164134D02*
Y4206654D01*
X15823622Y4164134D02*
Y4206654D01*
X15786614Y4185000D02*
X15822440Y4164134D01*
X15859448Y4145630D02*
Y4223976D01*
X15742126Y4145630D02*
X15859056D01*
X15741732D02*
Y4224370D01*
X15859448Y4223976D01*
X15731496Y4185394D02*
X15781890D01*
X14473622D02*
X14517716D01*
X14436220D02*
X14473622Y4206654D01*
X14432284Y4164134D02*
Y4206654D01*
X14473622Y4164134D02*
Y4206654D01*
X14436614Y4185000D02*
X14472440Y4164134D01*
X14509448Y4145630D02*
Y4223976D01*
X14392126Y4145630D02*
X14509056D01*
X14391732D02*
Y4224370D01*
X14509448Y4223976D01*
X14381496Y4185394D02*
X14431890D01*
X14423622Y4085394D02*
X14467716D01*
X14386220D02*
X14423622Y4106654D01*
X14382284Y4064134D02*
Y4106654D01*
X14423622Y4064134D02*
Y4106654D01*
X14386614Y4085000D02*
X14422440Y4064134D01*
X14459448Y4045630D02*
Y4123976D01*
X14342126Y4045630D02*
X14459056D01*
X14341732D02*
Y4124370D01*
X14459448Y4123976D01*
X14331496Y4085394D02*
X14381890D01*
X14523622Y4285394D02*
X14567716D01*
X14486220D02*
X14523622Y4306654D01*
X14482284Y4264134D02*
Y4306654D01*
X14523622Y4264134D02*
Y4306654D01*
X14486614Y4285000D02*
X14522440Y4264134D01*
X14559448Y4245630D02*
Y4323976D01*
X14442126Y4245630D02*
X14559056D01*
X14441732D02*
Y4324370D01*
X14559448Y4323976D01*
X14431496Y4285394D02*
X14481890D01*
X7068622D02*
X7112716D01*
X7031220D02*
X7068622Y4306654D01*
X7027284Y4264134D02*
Y4306654D01*
X7068622Y4264134D02*
Y4306654D01*
X7031614Y4285000D02*
X7067442Y4264134D01*
X7104450Y4245630D02*
Y4323976D01*
X6987126Y4245630D02*
X7104056D01*
X6986732D02*
Y4324370D01*
X7104450Y4323976D01*
X6976496Y4285394D02*
X7026890D01*
X6668622Y4385394D02*
X6712716D01*
X6631220D02*
X6668622Y4406654D01*
X6627284Y4364134D02*
Y4406654D01*
X6668622Y4364134D02*
Y4406654D01*
X6631614Y4385000D02*
X6667442Y4364134D01*
X6704450Y4345630D02*
Y4423976D01*
X6587126Y4345630D02*
X6704056D01*
X6586732D02*
Y4424370D01*
X6704450Y4423976D01*
X6576496Y4385394D02*
X6626890D01*
X6268622Y4485394D02*
X6312716D01*
X6231220D02*
X6268622Y4506654D01*
X6227284Y4464134D02*
Y4506654D01*
X6268622Y4464134D02*
Y4506654D01*
X6231614Y4485000D02*
X6267442Y4464134D01*
X6304450Y4445630D02*
Y4523976D01*
X6187126Y4445630D02*
X6304056D01*
X6186732D02*
Y4524370D01*
X6304450Y4523976D01*
X6176496Y4485394D02*
X6226890D01*
X6068622Y4085394D02*
X6112716D01*
X6031220D02*
X6068622Y4106654D01*
X6027284Y4064134D02*
Y4106654D01*
X6068622Y4064134D02*
Y4106654D01*
X6031614Y4085000D02*
X6067442Y4064134D01*
X6104450Y4045630D02*
Y4123976D01*
X5987126Y4045630D02*
X6104056D01*
X5986732D02*
Y4124370D01*
X6104450Y4123976D01*
X5976496Y4085394D02*
X6026890D01*
X5668622Y4185394D02*
X5712716D01*
X5631220D02*
X5668622Y4206654D01*
X5627284Y4164134D02*
Y4206654D01*
X5668622Y4164134D02*
Y4206654D01*
X5631614Y4185000D02*
X5667442Y4164134D01*
X5704450Y4145630D02*
Y4223976D01*
X5587126Y4145630D02*
X5704056D01*
X5586732D02*
Y4224370D01*
X5704450Y4223976D01*
X5576496Y4185394D02*
X5626890D01*
X5268622Y4285394D02*
X5312716D01*
X5231220D02*
X5268622Y4306654D01*
X5227284Y4264134D02*
Y4306654D01*
X5268622Y4264134D02*
Y4306654D01*
X5231614Y4285000D02*
X5267442Y4264134D01*
X5304450Y4245630D02*
Y4323976D01*
X5187126Y4245630D02*
X5304056D01*
X5186732D02*
Y4324370D01*
X5304450Y4323976D01*
X5176496Y4285394D02*
X5226890D01*
X4868622Y4385394D02*
X4912716D01*
X4831220D02*
X4868622Y4406654D01*
X4827284Y4364134D02*
Y4406654D01*
X4868622Y4364134D02*
Y4406654D01*
X4831614Y4385000D02*
X4867442Y4364134D01*
X4904450Y4345630D02*
Y4423976D01*
X4787126Y4345630D02*
X4904056D01*
X4786732D02*
Y4424370D01*
X4904450Y4423976D01*
X4776496Y4385394D02*
X4826890D01*
X4468622Y4485394D02*
X4512716D01*
X4431220D02*
X4468622Y4506654D01*
X4427284Y4464134D02*
Y4506654D01*
X4468622Y4464134D02*
Y4506654D01*
X4431614Y4485000D02*
X4467442Y4464134D01*
X4504450Y4445630D02*
Y4523976D01*
X4387126Y4445630D02*
X4504056D01*
X4386732D02*
Y4524370D01*
X4504450Y4523976D01*
X4376496Y4485394D02*
X4426890D01*
X3936732Y4524370D02*
X4054450Y4523976D01*
X4018622Y4485394D02*
X4062716D01*
X3981220D02*
X4018622Y4506654D01*
X3977284Y4464134D02*
Y4506654D01*
X4018622Y4464134D02*
Y4506654D01*
X3981614Y4485000D02*
X4017442Y4464134D01*
X4054450Y4445630D02*
Y4523976D01*
X3937126Y4445630D02*
X4054056D01*
X3926496Y4485394D02*
X3976890D01*
X3936732Y4445630D02*
Y4524370D01*
X3818622Y4085394D02*
X3862716D01*
X3781220D02*
X3818622Y4106654D01*
X3777284Y4064134D02*
Y4106654D01*
X3818622Y4064134D02*
Y4106654D01*
X3781614Y4085000D02*
X3817442Y4064134D01*
X3854450Y4045630D02*
Y4123976D01*
X3737126Y4045630D02*
X3854056D01*
X3736732D02*
Y4124370D01*
X3854450Y4123976D01*
X3726496Y4085394D02*
X3776890D01*
X3418622Y4185394D02*
X3462716D01*
X3381220D02*
X3418622Y4206654D01*
X3377284Y4164134D02*
Y4206654D01*
X3418622Y4164134D02*
Y4206654D01*
X3381614Y4185000D02*
X3417442Y4164134D01*
X3454450Y4145630D02*
Y4223976D01*
X3337126Y4145630D02*
X3454056D01*
X3336732D02*
Y4224370D01*
X3454450Y4223976D01*
X3326496Y4185394D02*
X3376890D01*
X3018622Y4285394D02*
X3062716D01*
X2981220D02*
X3018622Y4306654D01*
X2977284Y4264134D02*
Y4306654D01*
X3018622Y4264134D02*
Y4306654D01*
X2981614Y4285000D02*
X3017442Y4264134D01*
X3054448Y4245630D02*
Y4323976D01*
X2937126Y4245630D02*
X3054056D01*
X2936732D02*
Y4324370D01*
X3054448Y4323976D01*
X2926496Y4285394D02*
X2976890D01*
X2018622Y4085394D02*
X2062716D01*
X1981220D02*
X2018622Y4106654D01*
X1977284Y4064134D02*
Y4106654D01*
X2018622Y4064134D02*
Y4106654D01*
X1981614Y4085000D02*
X2017442Y4064134D01*
X2054448Y4045630D02*
Y4123976D01*
X1937126Y4045630D02*
X2054056D01*
X1936732D02*
Y4124370D01*
X2054448Y4123976D01*
X1926496Y4085394D02*
X1976890D01*
X9790590Y4120000D02*
X9827992D01*
X9790590Y4083780D02*
Y4156220D01*
X9639410D02*
X9790590D01*
X9602008Y4120000D02*
X9639410D01*
Y4083780D02*
X9790590D01*
X9639410D02*
Y4156220D01*
X9407520Y4643582D02*
X9413662D01*
X9316338D02*
X9322480D01*
X13889448Y4601220D02*
X13938976Y4601220D01*
X13889448Y4528780D02*
X13938976Y4528780D01*
X13891024Y4036220D02*
X13940552D01*
X13891024Y3963780D02*
X13940552Y3963780D01*
X12700944Y4726536D02*
Y4727126D01*
Y4642874D02*
Y4643464D01*
X12522204Y4727126D02*
X12700944D01*
X12522204Y4726536D02*
Y4727126D01*
Y4642874D02*
X12700944D01*
X12522204D02*
Y4643464D01*
X12702796Y3871536D02*
Y3872126D01*
Y3787874D02*
Y3788464D01*
X12524056Y3872126D02*
X12702796D01*
X12524056Y3871536D02*
Y3872126D01*
Y3787874D02*
X12702796D01*
X12524056D02*
Y3788464D01*
X9790590Y4375000D02*
X9827992D01*
X9790590Y4338780D02*
Y4411220D01*
X9639410D02*
X9790590D01*
X9602008Y4375000D02*
X9639410D01*
Y4338780D02*
X9790590D01*
X9639410D02*
Y4411220D01*
X9790590Y4290000D02*
X9827992D01*
X9790590Y4253780D02*
X9790590Y4326220D01*
X9639410D02*
X9790590D01*
X9602008Y4290000D02*
X9639410Y4290000D01*
Y4253780D02*
X9790590D01*
X9639410D02*
X9639410Y4326220D01*
X9790590Y4205000D02*
X9827992D01*
X9790590Y4168780D02*
Y4241220D01*
X9639410D02*
X9790590D01*
X9602008Y4205000D02*
X9639410D01*
Y4168780D02*
X9790590D01*
X9639410D02*
Y4241220D01*
X9790590Y4545000D02*
X9827992D01*
X9790590Y4508780D02*
Y4581220D01*
X9639410D02*
X9790590D01*
X9602008Y4545000D02*
X9639410D01*
Y4508780D02*
X9790590D01*
X9639410D02*
Y4581220D01*
X9790590Y4460000D02*
X9827992D01*
X9790590Y4496220D02*
X9790590Y4423780D01*
X9639410Y4496220D02*
X9790590D01*
X9602008Y4460000D02*
X9639410Y4460000D01*
Y4423780D02*
X9790590D01*
X9639410Y4496220D02*
X9639410Y4423780D01*
X11012590Y4214000D02*
X11049992D01*
X11012590Y4177780D02*
Y4250220D01*
X10861410D02*
X11012590D01*
X10824008Y4214000D02*
X10861410D01*
Y4177780D02*
X11012590D01*
X10861410D02*
Y4250220D01*
X11074842Y4376890D02*
Y4435944D01*
X10848464Y4534370D02*
X11025630D01*
X10848464Y4278464D02*
X11025630D01*
X10799252Y4376890D02*
Y4435944D01*
X11455748Y4376891D02*
Y4435944D01*
X11229370Y4534370D02*
X11406536D01*
X11229370Y4278465D02*
X11406536D01*
X11180158Y4376891D02*
Y4435944D01*
X9310394Y4268780D02*
X9331654Y4231378D01*
X9289134Y4272716D02*
X9331654D01*
X9310394Y4273110D02*
Y4323504D01*
X9289134Y4231378D02*
X9331654D01*
X9289134Y4232560D02*
X9310000Y4268386D01*
X9348976Y4195552D02*
X9349370Y4313268D01*
X9310394Y4187284D02*
Y4231378D01*
X9270630Y4313268D02*
X9349370D01*
X9270630Y4195552D02*
X9348976D01*
X9270630Y4195944D02*
Y4312874D01*
X9410394Y4268780D02*
X9431654Y4231378D01*
X9389134D02*
X9431654D01*
X9410394Y4273110D02*
X9410394Y4323504D01*
X9389134Y4232560D02*
X9410000Y4268386D01*
X9389134Y4272716D02*
X9431654Y4272716D01*
X9448976Y4195552D02*
X9449370Y4313268D01*
X9410394Y4187284D02*
Y4231378D01*
X9370630Y4313268D02*
X9449370D01*
X9370630Y4195552D02*
X9448976D01*
X9370630Y4195944D02*
Y4312874D01*
X10700354Y4348070D02*
Y4371614D01*
X10698778Y4348070D02*
Y4373190D01*
X10712952Y4275118D02*
Y4354882D01*
X10701928Y4348070D02*
Y4369960D01*
X10695630Y4348070D02*
Y4376102D01*
X10694054Y4348070D02*
Y4377480D01*
X10697204Y4348070D02*
Y4374686D01*
X10722400Y4300434D02*
Y4329566D01*
X10720826Y4293858D02*
Y4336142D01*
X10719252Y4288858D02*
Y4341142D01*
X10717676Y4284764D02*
Y4345236D01*
X10716102Y4281182D02*
Y4348818D01*
X10714526Y4277992D02*
Y4352008D01*
X10679882Y4348070D02*
Y4387048D01*
X10678306Y4348070D02*
Y4387874D01*
X10683030Y4348070D02*
Y4385276D01*
X10681456Y4348070D02*
Y4386182D01*
X10675156Y4348070D02*
Y4389370D01*
X10673582Y4348070D02*
Y4390078D01*
X10676732Y4348070D02*
Y4388622D01*
X10690904Y4348070D02*
Y4379960D01*
X10689330Y4348070D02*
Y4381142D01*
X10692480Y4348070D02*
Y4378740D01*
X10686180Y4383308D02*
X10686180Y4348070D01*
X10684606D02*
Y4384292D01*
X10687756Y4348070D02*
Y4382244D01*
X10711378Y4272480D02*
Y4357520D01*
X10709802Y4270040D02*
Y4359960D01*
X10708228Y4267756D02*
Y4362244D01*
X10706652Y4265630D02*
Y4364370D01*
X10705078Y4263662D02*
Y4366338D01*
X10703504Y4261812D02*
Y4368190D01*
X10692480Y4251260D02*
Y4281930D01*
X10701928Y4260040D02*
Y4281930D01*
X10700354Y4258386D02*
Y4281930D01*
X10698778Y4256812D02*
Y4281930D01*
X10697204Y4255316D02*
Y4281930D01*
X10695630Y4253898D02*
Y4281930D01*
X10694054Y4252520D02*
Y4281930D01*
X10681456Y4243818D02*
Y4281930D01*
X10679882Y4242952D02*
Y4281930D01*
X10678306Y4242126D02*
Y4281930D01*
X10676732Y4241378D02*
Y4281930D01*
X10675156Y4240630D02*
Y4281930D01*
X10673582Y4239922D02*
Y4281930D01*
X10672008Y4239252D02*
Y4281930D01*
X10690904Y4250040D02*
Y4281930D01*
X10689330Y4248858D02*
Y4281930D01*
X10687756Y4247756D02*
Y4281930D01*
X10686180Y4246692D02*
X10686180Y4281930D01*
X10684606Y4245708D02*
Y4281930D01*
X10683030Y4244724D02*
Y4281930D01*
X10660944Y4348070D02*
Y4394370D01*
X10659370Y4348070D02*
Y4394724D01*
X10664094Y4348070D02*
Y4393504D01*
X10662518Y4348070D02*
Y4393938D01*
X10656220Y4348070D02*
Y4395394D01*
X10654644Y4348070D02*
Y4395708D01*
X10657794Y4348070D02*
X10657794Y4395078D01*
X10670432Y4348070D02*
Y4391378D01*
X10668858Y4348070D02*
Y4391930D01*
X10672008Y4348070D02*
Y4390748D01*
X10667244Y4348070D02*
Y4392480D01*
X10665668Y4348070D02*
X10665668Y4393032D01*
X10646770Y4348070D02*
Y4396654D01*
X10645196Y4348070D02*
Y4396772D01*
X10649920Y4348070D02*
Y4396378D01*
X10648346Y4348070D02*
X10648346Y4396536D01*
X10642046Y4348070D02*
Y4396890D01*
X10640472Y4348070D02*
Y4396890D01*
X10643622Y4396850D02*
X10643622Y4348070D01*
X10653070D02*
Y4395944D01*
X10651496Y4348070D02*
Y4396182D01*
X10551110Y4362048D02*
X10566858Y4362048D01*
X10558984Y4354174D02*
Y4369922D01*
X10660944Y4235630D02*
Y4281930D01*
X10659370Y4235276D02*
Y4281930D01*
X10657794D02*
X10657794Y4234922D01*
X10670432Y4238622D02*
Y4281930D01*
X10668858Y4238070D02*
Y4281930D01*
X10667244Y4237520D02*
Y4281930D01*
X10665668D02*
X10665668Y4236968D01*
X10664094Y4236496D02*
Y4281930D01*
X10662518Y4236064D02*
Y4281930D01*
X10646770Y4233346D02*
Y4281930D01*
X10645196Y4233228D02*
Y4281930D01*
X10643622Y4233150D02*
X10643622Y4281930D01*
X10640472Y4233110D02*
Y4281930D01*
X10642046Y4233110D02*
Y4281930D01*
X10656220Y4234606D02*
Y4281930D01*
X10654644Y4234292D02*
Y4281930D01*
X10653070Y4234056D02*
Y4281930D01*
X10651496Y4233818D02*
Y4281930D01*
X10649920Y4233622D02*
Y4281930D01*
X10648346D02*
X10648346Y4233464D01*
D73*
X11663740Y3980000D02*
G03*
X11663740Y3980000I-4921J0D01*
G01*
X9135079Y4442520D02*
G03*
X9135079Y4442520I-4921J0D01*
G01*
D74*
X11667874Y4065433D02*
G03*
X11667874Y4065433I-11811J0D01*
G01*
D75*
X11616693Y4255000D02*
G03*
X11616693Y4305000I0J25000D01*
G01*
X11616692Y4026064D02*
X13703308D01*
X11616692D02*
Y4255000D01*
Y4305000D02*
Y4533936D01*
X13703308D01*
Y4026064D02*
Y4533936D01*
X9195118Y4592126D02*
Y4614960D01*
Y4463582D02*
Y4468110D01*
X8834882Y4592126D02*
Y4614960D01*
Y4463582D02*
X9195118D01*
X8834882D02*
Y4468110D01*
X10389212Y4550394D02*
X10389212Y4581890D01*
X10288818Y4550394D02*
Y4581890D01*
X10389212D01*
D76*
X10490000Y4350000D02*
Y4550000D01*
X10190000D02*
X10490000D01*
X10190000Y4350000D02*
X10490000D01*
X10190000D02*
Y4550000D01*
D77*
X6153000Y558928D02*
Y498947D01*
X6182990D01*
X6192987Y508944D01*
Y548931D01*
X6182990Y558928D01*
X6153000D01*
X6242971Y498947D02*
X6222977D01*
X6212981Y508944D01*
Y528937D01*
X6222977Y538934D01*
X6242971D01*
X6252968Y528937D01*
Y518940D01*
X6212981D01*
X6272961Y498947D02*
X6302952D01*
X6312948Y508944D01*
X6302952Y518940D01*
X6282958D01*
X6272961Y528937D01*
X6282958Y538934D01*
X6312948D01*
X6332942Y498947D02*
X6352935D01*
X6342939D01*
Y538934D01*
X6332942D01*
X6402919Y478953D02*
X6412916D01*
X6422913Y488950D01*
Y538934D01*
X6392922D01*
X6382926Y528937D01*
Y508944D01*
X6392922Y498947D01*
X6422913D01*
X6442906D02*
Y538934D01*
X6472896D01*
X6482893Y528937D01*
Y498947D01*
X6532877D02*
X6512884D01*
X6502887Y508944D01*
Y528937D01*
X6512884Y538934D01*
X6532877D01*
X6542874Y528937D01*
Y518940D01*
X6502887D01*
X6602855Y558928D02*
Y498947D01*
X6572864D01*
X6562867Y508944D01*
Y528937D01*
X6572864Y538934D01*
X6602855D01*
X6682829Y558928D02*
Y498947D01*
X6712819D01*
X6722816Y508944D01*
Y518940D01*
X6712819Y528937D01*
X6682829D01*
X6712819D01*
X6722816Y538934D01*
Y548931D01*
X6712819Y558928D01*
X6682829D01*
X6742809Y538934D02*
Y508944D01*
X6752806Y498947D01*
X6782796D01*
Y488950D01*
X6772800Y478953D01*
X6762803D01*
X6782796Y498947D02*
Y538934D01*
X6902757Y558928D02*
X6862770D01*
Y498947D01*
X6902757D01*
X6862770Y528937D02*
X6882764D01*
X6922751Y498947D02*
X6942744D01*
X6932748D01*
Y558928D01*
X6922751D01*
X6972735Y498947D02*
X6992728D01*
X6982732D01*
Y558928D01*
X6972735D01*
X7032715Y538934D02*
X7052709D01*
X7062706Y528937D01*
Y498947D01*
X7032715D01*
X7022719Y508944D01*
X7032715Y518940D01*
X7062706D01*
X6153000Y422964D02*
Y382977D01*
Y402970D01*
X6162997Y412967D01*
X6172993Y422964D01*
X6182990D01*
X6242971Y382977D02*
X6222977D01*
X6212981Y392974D01*
Y412967D01*
X6222977Y422964D01*
X6242971D01*
X6252968Y412967D01*
Y402970D01*
X6212981D01*
X6272961Y422964D02*
X6292955Y382977D01*
X6312948Y422964D01*
X6362932Y382977D02*
Y442957D01*
X6332942Y412967D01*
X6372929D01*
X6192987Y287000D02*
X6153000D01*
X6192987Y326987D01*
Y336984D01*
X6182990Y346981D01*
X6162997D01*
X6153000Y336984D01*
X6212981D02*
X6222977Y346981D01*
X6242971D01*
X6252968Y336984D01*
Y296997D01*
X6242971Y287000D01*
X6222977D01*
X6212981Y296997D01*
Y336984D01*
X6312948Y287000D02*
X6272961D01*
X6312948Y326987D01*
Y336984D01*
X6302952Y346981D01*
X6282958D01*
X6272961Y336984D01*
X6332942Y287000D02*
X6352935D01*
X6342939D01*
Y346981D01*
X6332942Y336984D01*
X6382926Y316990D02*
X6422913D01*
X6482893Y287000D02*
X6442906D01*
X6482893Y326987D01*
Y336984D01*
X6472896Y346981D01*
X6452903D01*
X6442906Y336984D01*
X6502887D02*
X6512884Y346981D01*
X6532877D01*
X6542874Y336984D01*
Y296997D01*
X6532877Y287000D01*
X6512884D01*
X6502887Y296997D01*
Y336984D01*
X6602855Y287000D02*
X6562867D01*
X6602855Y326987D01*
Y336984D01*
X6592858Y346981D01*
X6572864D01*
X6562867Y336984D01*
X6662835Y287000D02*
X6622848D01*
X6662835Y326987D01*
Y336984D01*
X6652838Y346981D01*
X6632845D01*
X6622848Y336984D01*
X12630013Y4308990D02*
Y4259007D01*
X12640010Y4249010D01*
X12660003D01*
X12670000Y4259007D01*
Y4308990D01*
X12689994Y4249010D02*
X12709987D01*
X12699990D01*
Y4308990D01*
X12689994Y4298993D01*
X13904990Y4314987D02*
X13894994D01*
X13875000Y4294993D01*
X13894994Y4275000D01*
X13904990D01*
X13875000Y4294993D02*
X13845010D01*
Y4255006D02*
Y4235013D01*
Y4245010D01*
X13904990D01*
X13894994Y4255006D01*
X14053426Y4589993D02*
X14043429Y4599990D01*
X14023436D01*
X14013439Y4589993D01*
Y4550007D01*
X14023436Y4540010D01*
X14043429D01*
X14053426Y4550007D01*
X14073420Y4540010D02*
X14093413D01*
X14083416D01*
Y4599990D01*
X14073420Y4589993D01*
X14056578Y4019994D02*
X14046581Y4029990D01*
X14026588D01*
X14016591Y4019994D01*
Y3980006D01*
X14026588Y3970010D01*
X14046581D01*
X14056578Y3980006D01*
X14116559Y3970010D02*
X14076572D01*
X14116559Y4009997D01*
Y4019994D01*
X14106562Y4029990D01*
X14086568D01*
X14076572Y4019994D01*
D78*
X8665638Y4615000D02*
X8705000D01*
X8665638D02*
Y4639367D01*
X8684382Y4615000D02*
Y4629995D01*
X8665638Y4643865D02*
X8693754D01*
X8699377Y4645740D01*
X8703126Y4649488D01*
X8705000Y4655111D01*
Y4658860D01*
X8703126Y4664483D01*
X8699377Y4668232D01*
X8693754Y4670106D01*
X8665638D01*
X8671261Y4707219D02*
X8667513Y4703470D01*
X8665638Y4697847D01*
Y4690349D01*
X8667513Y4684726D01*
X8671261Y4680978D01*
X8675010D01*
X8678759Y4682852D01*
X8680633Y4684726D01*
X8682508Y4688475D01*
X8686256Y4699721D01*
X8688131Y4703470D01*
X8690005Y4705344D01*
X8693754Y4707219D01*
X8699377D01*
X8703126Y4703470D01*
X8705000Y4697847D01*
Y4690349D01*
X8703126Y4684726D01*
X8699377Y4680978D01*
X8665638Y4740395D02*
Y4716028D01*
X8705000D01*
Y4740395D01*
X8684382Y4716028D02*
Y4731023D01*
X10218115Y4334990D02*
X10216241Y4338739D01*
X10212492Y4342487D01*
X10208744Y4344362D01*
X10201246D01*
X10197497Y4342487D01*
X10193749Y4338739D01*
X10191874Y4334990D01*
X10190000Y4329367D01*
Y4319995D01*
X10191874Y4314372D01*
X10193749Y4310623D01*
X10197497Y4306874D01*
X10201246Y4305000D01*
X10208744D01*
X10212492Y4306874D01*
X10216241Y4310623D01*
X10218115Y4314372D01*
Y4319995D01*
X10208744D02*
X10218115D01*
X10227112Y4344362D02*
Y4305000D01*
Y4344362D02*
X10253353Y4305000D01*
Y4344362D02*
Y4305000D01*
X10264225Y4344362D02*
Y4305000D01*
Y4344362D02*
X10277345D01*
X10282969Y4342487D01*
X10286717Y4338739D01*
X10288592Y4334990D01*
X10290466Y4329367D01*
Y4319995D01*
X10288592Y4314372D01*
X10286717Y4310623D01*
X10282969Y4306874D01*
X10277345Y4305000D01*
X10264225D01*
X12433115Y4689990D02*
X12431241Y4693739D01*
X12427492Y4697487D01*
X12423744Y4699362D01*
X12416246D01*
X12412497Y4697487D01*
X12408749Y4693739D01*
X12406874Y4689990D01*
X12405000Y4684367D01*
Y4674995D01*
X12406874Y4669372D01*
X12408749Y4665623D01*
X12412497Y4661874D01*
X12416246Y4660000D01*
X12423744D01*
X12427492Y4661874D01*
X12431241Y4665623D01*
X12433115Y4669372D01*
X12462918Y4699362D02*
X12444174Y4673121D01*
X12472290D01*
X12462918Y4699362D02*
Y4660000D01*
X12571888Y4698775D02*
X12566265Y4696901D01*
X12562517Y4691278D01*
X12560642Y4681906D01*
Y4676283D01*
X12562517Y4666911D01*
X12566265Y4661288D01*
X12571888Y4659414D01*
X12575637D01*
X12581260Y4661288D01*
X12585009Y4666911D01*
X12586883Y4676283D01*
Y4681906D01*
X12585009Y4691278D01*
X12581260Y4696901D01*
X12575637Y4698775D01*
X12571888D01*
X12597567Y4663163D02*
X12595693Y4661288D01*
X12597567Y4659414D01*
X12599442Y4661288D01*
X12597567Y4663163D01*
X12608064Y4691278D02*
X12611812Y4693152D01*
X12617435Y4698775D01*
Y4659414D01*
X12636929Y4685655D02*
Y4666911D01*
X12638803Y4661288D01*
X12642552Y4659414D01*
X12648175D01*
X12651924Y4661288D01*
X12657547Y4666911D01*
Y4685655D02*
Y4659414D01*
X12433115Y3839990D02*
X12431241Y3843739D01*
X12427492Y3847487D01*
X12423744Y3849362D01*
X12416246D01*
X12412497Y3847487D01*
X12408749Y3843739D01*
X12406874Y3839990D01*
X12405000Y3834367D01*
Y3824995D01*
X12406874Y3819372D01*
X12408749Y3815623D01*
X12412497Y3811874D01*
X12416246Y3810000D01*
X12423744D01*
X12427492Y3811874D01*
X12431241Y3815623D01*
X12433115Y3819372D01*
X12466667Y3849362D02*
X12447923D01*
X12446049Y3832492D01*
X12447923Y3834367D01*
X12453546Y3836241D01*
X12459169D01*
X12464792Y3834367D01*
X12468541Y3830618D01*
X12470415Y3824995D01*
Y3821246D01*
X12468541Y3815623D01*
X12464792Y3811874D01*
X12459169Y3810000D01*
X12453546D01*
X12447923Y3811874D01*
X12446049Y3813749D01*
X12444174Y3817497D01*
X12576246Y3849362D02*
X12570623Y3847487D01*
X12566874Y3841864D01*
X12565000Y3832492D01*
Y3826869D01*
X12566874Y3817497D01*
X12570623Y3811874D01*
X12576246Y3810000D01*
X12579995D01*
X12585618Y3811874D01*
X12589367Y3817497D01*
X12591241Y3826869D01*
Y3832492D01*
X12589367Y3841864D01*
X12585618Y3847487D01*
X12579995Y3849362D01*
X12576246D01*
X12601925Y3813749D02*
X12600051Y3811874D01*
X12601925Y3810000D01*
X12603799Y3811874D01*
X12601925Y3813749D01*
X12612421Y3841864D02*
X12616170Y3843739D01*
X12621793Y3849362D01*
Y3810000D01*
X12641287Y3836241D02*
Y3817497D01*
X12643161Y3811874D01*
X12646910Y3810000D01*
X12652533D01*
X12656281Y3811874D01*
X12661905Y3817497D01*
Y3836241D02*
Y3810000D01*
X10860000Y4589362D02*
Y4550000D01*
Y4589362D02*
X10876869D01*
X10882492Y4587487D01*
X10884367Y4585613D01*
X10886241Y4581864D01*
Y4578115D01*
X10884367Y4574367D01*
X10882492Y4572492D01*
X10876869Y4570618D01*
X10860000D01*
X10873121D02*
X10886241Y4550000D01*
X10919417Y4589362D02*
X10895051D01*
Y4550000D01*
X10919417D01*
X10895051Y4570618D02*
X10910046D01*
X10952219Y4583739D02*
X10948470Y4587487D01*
X10942847Y4589362D01*
X10935349D01*
X10929726Y4587487D01*
X10925978Y4583739D01*
Y4579990D01*
X10927852Y4576241D01*
X10929726Y4574367D01*
X10933475Y4572492D01*
X10944721Y4568744D01*
X10948470Y4566869D01*
X10950344Y4564995D01*
X10952219Y4561246D01*
Y4555623D01*
X10948470Y4551874D01*
X10942847Y4550000D01*
X10935349D01*
X10929726Y4551874D01*
X10925978Y4555623D01*
X10985395Y4589362D02*
X10961028D01*
Y4550000D01*
X10985395D01*
X10961028Y4570618D02*
X10976023D01*
X11005076Y4589362D02*
Y4550000D01*
X10991955Y4589362D02*
X11018196D01*
X11255000D02*
Y4550000D01*
Y4589362D02*
X11271869D01*
X11277492Y4587487D01*
X11279367Y4585613D01*
X11281241Y4581864D01*
Y4578115D01*
X11279367Y4574367D01*
X11277492Y4572492D01*
X11271869Y4570618D01*
X11255000D02*
X11271869D01*
X11277492Y4568744D01*
X11279367Y4566869D01*
X11281241Y4563121D01*
Y4557498D01*
X11279367Y4553749D01*
X11277492Y4551874D01*
X11271869Y4550000D01*
X11255000D01*
X11301297Y4589362D02*
X11297548Y4587487D01*
X11293799Y4583739D01*
X11291925Y4579990D01*
X11290051Y4574367D01*
Y4564995D01*
X11291925Y4559372D01*
X11293799Y4555623D01*
X11297548Y4551874D01*
X11301297Y4550000D01*
X11308794D01*
X11312543Y4551874D01*
X11316292Y4555623D01*
X11318166Y4559372D01*
X11320040Y4564995D01*
Y4574367D01*
X11318166Y4579990D01*
X11316292Y4583739D01*
X11312543Y4587487D01*
X11308794Y4589362D01*
X11301297D01*
X11340471D02*
X11336722Y4587487D01*
X11332974Y4583739D01*
X11331099Y4579990D01*
X11329225Y4574367D01*
Y4564995D01*
X11331099Y4559372D01*
X11332974Y4555623D01*
X11336722Y4551874D01*
X11340471Y4550000D01*
X11347969D01*
X11351717Y4551874D01*
X11355466Y4555623D01*
X11357340Y4559372D01*
X11359215Y4564995D01*
Y4574367D01*
X11357340Y4579990D01*
X11355466Y4583739D01*
X11351717Y4587487D01*
X11347969Y4589362D01*
X11340471D01*
X11381520D02*
Y4550000D01*
X11368399Y4589362D02*
X11394640D01*
X9324839Y4086702D02*
X9293350Y4107695D01*
X9324839D02*
Y4086702D01*
X9293350Y4107695D02*
Y4086702D01*
X9324839Y4079654D02*
X9293350D01*
X9324839D02*
Y4069158D01*
X9323340Y4064659D01*
X9320341Y4061660D01*
X9317342Y4060161D01*
X9312843Y4058661D01*
X9305346D01*
X9300847Y4060161D01*
X9297848Y4061660D01*
X9294849Y4064659D01*
X9293350Y4069158D01*
Y4079654D01*
X9318841Y4051614D02*
X9320341Y4048615D01*
X9324839Y4044116D01*
X9293350D01*
X9419839Y4088449D02*
X9388350Y4109442D01*
X9419839D02*
Y4088449D01*
X9388350Y4109442D02*
Y4088449D01*
X9419839Y4081402D02*
X9388350D01*
X9419839D02*
Y4070905D01*
X9418340Y4066407D01*
X9415341Y4063408D01*
X9412342Y4061908D01*
X9407843Y4060409D01*
X9400346D01*
X9395847Y4061908D01*
X9392848Y4063408D01*
X9389849Y4066407D01*
X9388350Y4070905D01*
Y4081402D01*
X9412342Y4051862D02*
X9413841D01*
X9416840Y4050362D01*
X9418340Y4048863D01*
X9419839Y4045864D01*
Y4039866D01*
X9418340Y4036867D01*
X9416840Y4035367D01*
X9413841Y4033868D01*
X9410842D01*
X9407843Y4035367D01*
X9403345Y4038366D01*
X9388350Y4053361D01*
Y4032368D01*
X10500447Y4309404D02*
X10498572Y4313152D01*
X10494824Y4316901D01*
X10491075Y4318775D01*
X10483577D01*
X10479829Y4316901D01*
X10476080Y4313152D01*
X10474206Y4309404D01*
X10472331Y4303780D01*
Y4294409D01*
X10474206Y4288786D01*
X10476080Y4285037D01*
X10479829Y4281288D01*
X10483577Y4279414D01*
X10491075D01*
X10494824Y4281288D01*
X10498572Y4285037D01*
X10500447Y4288786D01*
X10515254Y4318775D02*
X10535872D01*
X10524626Y4303780D01*
X10530249D01*
X10533998Y4301906D01*
X10535872Y4300032D01*
X10537746Y4294409D01*
Y4290660D01*
X10535872Y4285037D01*
X10532123Y4281288D01*
X10526500Y4279414D01*
X10520877D01*
X10515254Y4281288D01*
X10513380Y4283163D01*
X10511505Y4286911D01*
D79*
X9658523Y4105257D02*
X9669019D01*
X9663771D01*
Y4136743D01*
X9658523Y4131495D01*
X9684762Y4105257D02*
Y4110505D01*
X9690010D01*
Y4105257D01*
X9684762D01*
X9731991Y4136743D02*
X9711000D01*
Y4121000D01*
X9721495Y4126248D01*
X9726743D01*
X9731991Y4121000D01*
Y4110505D01*
X9726743Y4105257D01*
X9716248D01*
X9711000Y4110505D01*
X9742486Y4136743D02*
Y4105257D01*
Y4115752D01*
X9763477Y4136743D01*
X9747734Y4121000D01*
X9763477Y4105257D01*
X9694083Y4384888D02*
X9673092D01*
Y4369145D01*
X9683587Y4374393D01*
X9688835D01*
X9694083Y4369145D01*
Y4358650D01*
X9688835Y4353402D01*
X9678340D01*
X9673092Y4358650D01*
X9704578Y4353402D02*
Y4358650D01*
X9709826D01*
Y4353402D01*
X9704578D01*
X9730816D02*
X9741312D01*
X9736064D01*
Y4384888D01*
X9730816Y4379641D01*
X9757055Y4384888D02*
Y4353402D01*
Y4363898D01*
X9778045Y4384888D01*
X9762302Y4369145D01*
X9778045Y4353402D01*
X9688002Y4303720D02*
X9667012D01*
Y4287977D01*
X9677507Y4293225D01*
X9682755D01*
X9688002Y4287977D01*
Y4277482D01*
X9682755Y4272234D01*
X9672259D01*
X9667012Y4277482D01*
X9698498Y4272234D02*
Y4277482D01*
X9703745D01*
Y4272234D01*
X9698498D01*
X9724736D02*
X9735231D01*
X9729984D01*
Y4303720D01*
X9724736Y4298472D01*
X9750974Y4303720D02*
Y4272234D01*
Y4282730D01*
X9771965Y4303720D01*
X9756222Y4287977D01*
X9771965Y4272234D01*
X9660000Y4190000D02*
X9670495D01*
X9665248D01*
Y4221486D01*
X9660000Y4216238D01*
X9686238Y4190000D02*
Y4195248D01*
X9691486D01*
Y4190000D01*
X9686238D01*
X9733467Y4221486D02*
X9712477D01*
Y4205743D01*
X9722972Y4210991D01*
X9728220D01*
X9733467Y4205743D01*
Y4195248D01*
X9728220Y4190000D01*
X9717724D01*
X9712477Y4195248D01*
X9743962Y4221486D02*
Y4190000D01*
Y4200495D01*
X9764953Y4221486D01*
X9749210Y4205743D01*
X9764953Y4190000D01*
X9675566Y4554888D02*
X9696557D01*
Y4549641D01*
X9675566Y4528650D01*
Y4523402D01*
X9728043Y4554888D02*
X9707052D01*
Y4539145D01*
X9717547Y4544393D01*
X9722795D01*
X9728043Y4539145D01*
Y4528650D01*
X9722795Y4523402D01*
X9712300D01*
X9707052Y4528650D01*
X9738538Y4523402D02*
Y4554888D01*
X9754281D01*
X9759529Y4549641D01*
Y4539145D01*
X9754281Y4533898D01*
X9738538D01*
X9749033D02*
X9759529Y4523402D01*
X9675566Y4469888D02*
X9696557D01*
Y4464641D01*
X9675566Y4443650D01*
Y4438402D01*
X9728043Y4469888D02*
X9707052D01*
Y4454145D01*
X9717548Y4459393D01*
X9722795D01*
X9728043Y4454145D01*
Y4443650D01*
X9722795Y4438402D01*
X9712300D01*
X9707052Y4443650D01*
X9738538Y4438402D02*
Y4469888D01*
X9754281D01*
X9759529Y4464641D01*
Y4454145D01*
X9754281Y4448898D01*
X9738538D01*
X9749033D02*
X9759529Y4438402D01*
X11130000Y4231489D02*
Y4200000D01*
Y4231489D02*
X11143495D01*
X11147994Y4229990D01*
X11149493Y4228490D01*
X11150993Y4225491D01*
Y4222492D01*
X11149493Y4219493D01*
X11147994Y4217994D01*
X11143495Y4216494D01*
X11130000D01*
X11140496D02*
X11150993Y4200000D01*
X11158040Y4225491D02*
X11161040Y4226991D01*
X11165538Y4231489D01*
Y4200000D01*
X11181133Y4225491D02*
X11184132Y4226991D01*
X11188630Y4231489D01*
Y4200000D01*
X10910000Y4225491D02*
X10912999Y4226991D01*
X10917497Y4231489D01*
Y4200000D01*
X10942089Y4231489D02*
X10937591Y4229990D01*
X10934592Y4225491D01*
X10933092Y4217994D01*
Y4213495D01*
X10934592Y4205998D01*
X10937591Y4201499D01*
X10942089Y4200000D01*
X10945088D01*
X10949587Y4201499D01*
X10952586Y4205998D01*
X10954085Y4213495D01*
Y4217994D01*
X10952586Y4225491D01*
X10949587Y4229990D01*
X10945088Y4231489D01*
X10942089D01*
X10961133D02*
Y4200000D01*
X10976128Y4220993D02*
X10961133Y4205998D01*
X10967131Y4211996D02*
X10977627Y4200000D01*
%TF.MD5,f7db79c7274a8c9a6c0fb254038dff15*%
M02*
