%TF.GenerationSoftware,Altium Limited,Altium Designer,22.1.2 (22)*%
G04 Layer_Color=0*
%FSLAX26Y26*%
%MOIN*%
%TF.SameCoordinates,6AB8E791-3C66-40CF-9B94-9E67D8B32DB7*%
%TF.FilePolarity,Positive*%
%TF.FileFunction,Plated,1,2,PTH,Drill*%
%TF.Part,Single*%
G01*
G75*
%TA.AperFunction,ComponentDrill*%
%ADD88C,0.059000*%
%ADD89C,0.031496*%
%ADD90C,0.039370*%
%ADD91O,0.110236X0.059055*%
%ADD92C,0.089000*%
%ADD93C,0.030000*%
%ADD94C,0.035433*%
%ADD95C,0.031496*%
%ADD96C,0.015748*%
%ADD97O,0.023622X0.082677*%
%ADD98O,0.023622X0.055118*%
%ADD99C,0.027559*%
%ADD100C,0.027559*%
%ADD101C,0.043307*%
%ADD102C,0.040000*%
%ADD103C,0.023622*%
%TA.AperFunction,ViaDrill,NotFilled*%
%ADD104C,0.011811*%
D88*
X8115250Y481000D02*
D03*
X8365250Y581000D02*
D03*
X12709000Y1231000D02*
D03*
X12959000Y1331000D02*
D03*
X13615000D02*
D03*
X13365000Y1231000D02*
D03*
X12335000D02*
D03*
X12585000Y1331000D02*
D03*
X8365236Y3581000D02*
D03*
X8115236Y3481000D02*
D03*
X15240250Y1231000D02*
D03*
X15490250Y1331000D02*
D03*
X13146500Y2081000D02*
D03*
X12896500Y1981000D02*
D03*
X13240250Y3581000D02*
D03*
X12990250Y3481000D02*
D03*
X7896500Y581000D02*
D03*
X7646500Y481000D02*
D03*
X14740250Y3581000D02*
D03*
X14490250Y3481000D02*
D03*
X6115250Y3581000D02*
D03*
X5865250Y3481000D02*
D03*
X13427750Y581000D02*
D03*
X13177750Y481000D02*
D03*
X12490250Y581000D02*
D03*
X12240250Y481000D02*
D03*
X11552750Y581000D02*
D03*
X11302750Y481000D02*
D03*
X5177750Y581000D02*
D03*
X4927750Y481000D02*
D03*
X4240250Y581000D02*
D03*
X3990250Y481000D02*
D03*
X3302750Y581000D02*
D03*
X3052750Y481000D02*
D03*
X16240250Y581000D02*
D03*
X15990250Y481000D02*
D03*
X15490250Y581000D02*
D03*
X15240250Y481000D02*
D03*
X14740250Y581000D02*
D03*
X14490250Y481000D02*
D03*
X13521500Y581000D02*
D03*
X13271500Y481000D02*
D03*
X12584000Y581000D02*
D03*
X12334000Y481000D02*
D03*
X11646500Y581000D02*
D03*
X11396500Y481000D02*
D03*
X10709000Y581000D02*
D03*
X10459000Y481000D02*
D03*
X5084000Y581000D02*
D03*
X4834000Y481000D02*
D03*
X4146500Y581000D02*
D03*
X3896500Y481000D02*
D03*
X3209000Y581000D02*
D03*
X2959000Y481000D02*
D03*
X1990250Y581000D02*
D03*
X1740250Y481000D02*
D03*
X3209000Y1331000D02*
D03*
X2959000Y1231000D02*
D03*
X11552750Y1331000D02*
D03*
X11302750Y1231000D02*
D03*
X10802750Y1331000D02*
D03*
X10552750Y1231000D02*
D03*
X10052750Y1331000D02*
D03*
X9802750Y1231000D02*
D03*
X9302750Y1331000D02*
D03*
X9052750Y1231000D02*
D03*
X8552750Y1331000D02*
D03*
X8302750Y1231000D02*
D03*
X7802750Y1331000D02*
D03*
X7552750Y1231000D02*
D03*
X7052750Y1331000D02*
D03*
X6802750Y1231000D02*
D03*
X6302750Y1331000D02*
D03*
X6052750Y1231000D02*
D03*
X5552750Y1331000D02*
D03*
X5302750Y1231000D02*
D03*
X4802750Y1331000D02*
D03*
X4552750Y1231000D02*
D03*
X4052750Y1331000D02*
D03*
X3802750Y1231000D02*
D03*
X3584000Y1331000D02*
D03*
X3334000Y1231000D02*
D03*
X1990250Y1331000D02*
D03*
X1740250Y1231000D02*
D03*
X13521500Y2456000D02*
D03*
X13271500Y2356000D02*
D03*
X12677750Y2081000D02*
D03*
X12427750Y1981000D02*
D03*
X11927750Y2081000D02*
D03*
X11677750Y1981000D02*
D03*
X11177750Y2081000D02*
D03*
X10927750Y1981000D02*
D03*
X10427750Y2081000D02*
D03*
X10177750Y1981000D02*
D03*
X9677750Y2081000D02*
D03*
X9427750Y1981000D02*
D03*
X8927750Y2081000D02*
D03*
X8677750Y1981000D02*
D03*
X8177750Y2081000D02*
D03*
X7927750Y1981000D02*
D03*
X7427750Y2081000D02*
D03*
X7177750Y1981000D02*
D03*
X6677750Y2081000D02*
D03*
X6427750Y1981000D02*
D03*
X5927750Y2081000D02*
D03*
X5677750Y1981000D02*
D03*
X5177750Y2081000D02*
D03*
X4927750Y1981000D02*
D03*
X4427750Y2081000D02*
D03*
X4177750Y1981000D02*
D03*
X3209000Y2081000D02*
D03*
X3396500D02*
D03*
X3146500Y1981000D02*
D03*
X2959000D02*
D03*
X1990250Y2081000D02*
D03*
X1740250Y1981000D02*
D03*
X16240250Y2831000D02*
D03*
X15990250Y2731000D02*
D03*
X15490250Y2831000D02*
D03*
X15240250Y2731000D02*
D03*
X14740250Y2831000D02*
D03*
X14490250Y2731000D02*
D03*
X13427750Y2831000D02*
D03*
X13177750Y2731000D02*
D03*
X12490250Y2831000D02*
D03*
X12240250Y2731000D02*
D03*
X11740250Y2831000D02*
D03*
X11490250Y2731000D02*
D03*
X10990250Y2831000D02*
D03*
X10740250Y2731000D02*
D03*
X10240250Y2831000D02*
D03*
X9990250Y2731000D02*
D03*
X9490250Y2831000D02*
D03*
X9240250Y2731000D02*
D03*
X8740250Y2831000D02*
D03*
X8490250Y2731000D02*
D03*
X7990250Y2831000D02*
D03*
X7740250Y2731000D02*
D03*
X7240250Y2831000D02*
D03*
X6990250Y2731000D02*
D03*
X6490250Y2831000D02*
D03*
X6240250Y2731000D02*
D03*
X5740250Y2831000D02*
D03*
X5490250Y2731000D02*
D03*
X4990250Y2831000D02*
D03*
X4740250Y2731000D02*
D03*
X4240250Y2831000D02*
D03*
X3990250Y2731000D02*
D03*
X3302750Y2831000D02*
D03*
X3052750Y2731000D02*
D03*
X1990250Y2831000D02*
D03*
X1740250Y2731000D02*
D03*
X16240250Y3581000D02*
D03*
X15990250Y3481000D02*
D03*
X15490250Y3581000D02*
D03*
X15240250Y3481000D02*
D03*
X13615250Y3581000D02*
D03*
X13365250Y3481000D02*
D03*
X12865250Y3581000D02*
D03*
X12615250Y3481000D02*
D03*
X12115250Y3581000D02*
D03*
X11865250Y3481000D02*
D03*
X11365250Y3581000D02*
D03*
X11115250Y3481000D02*
D03*
X10615250Y3581000D02*
D03*
X10365250Y3481000D02*
D03*
X9865250Y3581000D02*
D03*
X9615250Y3481000D02*
D03*
X9115250Y3581000D02*
D03*
X8865250Y3481000D02*
D03*
X7615250Y3581000D02*
D03*
X7365250Y3481000D02*
D03*
X6865250Y3581000D02*
D03*
X6615250Y3481000D02*
D03*
X5365250Y3581000D02*
D03*
X5115250Y3481000D02*
D03*
X4615250Y3581000D02*
D03*
X4365250Y3481000D02*
D03*
X3865250Y3581000D02*
D03*
X3615250Y3481000D02*
D03*
X3115250Y3581000D02*
D03*
X2865250Y3481000D02*
D03*
X1990250Y3581000D02*
D03*
X1740250Y3481000D02*
D03*
D89*
X7045000Y4485000D02*
D03*
X7245000D02*
D03*
X16049999D02*
D03*
X15850000D02*
D03*
X15450000Y4185000D02*
D03*
X15250000D02*
D03*
X15400000Y4085000D02*
D03*
X15200000D02*
D03*
X15150000Y4485000D02*
D03*
X14950000D02*
D03*
X15100000Y4385000D02*
D03*
X14900000D02*
D03*
X15050000Y4285000D02*
D03*
X14850000D02*
D03*
X7195000Y4385000D02*
D03*
X6995000D02*
D03*
X6795000Y4485000D02*
D03*
X6595000D02*
D03*
X4345000Y4085000D02*
D03*
X4145000D02*
D03*
X2645000Y4285000D02*
D03*
X2445000D02*
D03*
X2595000Y4185000D02*
D03*
X2395000D02*
D03*
X2545000Y4085000D02*
D03*
X2345000D02*
D03*
X2295000Y4485000D02*
D03*
X2095000D02*
D03*
X15500000Y4285000D02*
D03*
X15300000D02*
D03*
X15000000Y4185000D02*
D03*
X14800000D02*
D03*
X6595000Y4085000D02*
D03*
X6395000D02*
D03*
X6195000Y4185000D02*
D03*
X5995000D02*
D03*
X5795000Y4285000D02*
D03*
X5595000D02*
D03*
X5395000Y4385000D02*
D03*
X5195000D02*
D03*
X4995000Y4485000D02*
D03*
X4795000D02*
D03*
Y4085000D02*
D03*
X4595000D02*
D03*
X4395000Y4185000D02*
D03*
X4195000D02*
D03*
X3945000D02*
D03*
X3745000D02*
D03*
X3545000Y4285000D02*
D03*
X3345000D02*
D03*
X3145000Y4385000D02*
D03*
X2945000D02*
D03*
X2745000Y4485000D02*
D03*
X2545000D02*
D03*
X2695000Y4385000D02*
D03*
X2495000D02*
D03*
X2245000D02*
D03*
X2045000D02*
D03*
X14950000Y4085000D02*
D03*
X14750000D02*
D03*
X7045000D02*
D03*
X6845000D02*
D03*
X6645000Y4185000D02*
D03*
X6445000D02*
D03*
X6245000Y4285000D02*
D03*
X6045000D02*
D03*
X5845000Y4385000D02*
D03*
X5645000D02*
D03*
X5445000Y4485000D02*
D03*
X5245000D02*
D03*
Y4085000D02*
D03*
X5045000D02*
D03*
X4845000Y4185000D02*
D03*
X4645000D02*
D03*
X4445000Y4285000D02*
D03*
X4245000D02*
D03*
X3995000D02*
D03*
X3795000D02*
D03*
X3595000Y4385000D02*
D03*
X3395000D02*
D03*
X3195000Y4485000D02*
D03*
X2995000D02*
D03*
Y4085000D02*
D03*
X2795000D02*
D03*
X2195000Y4285000D02*
D03*
X1995000D02*
D03*
X15850000Y4085000D02*
D03*
X15650000D02*
D03*
X15600000Y4485000D02*
D03*
X15400000D02*
D03*
X15550000Y4385000D02*
D03*
X15350000D02*
D03*
X14700000Y4485000D02*
D03*
X14500000D02*
D03*
X14650000Y4385000D02*
D03*
X14450000D02*
D03*
X7095000Y4185000D02*
D03*
X6895000D02*
D03*
X6695000Y4285000D02*
D03*
X6495000D02*
D03*
X6295000Y4385000D02*
D03*
X6095000D02*
D03*
X5895000Y4485000D02*
D03*
X5695000D02*
D03*
Y4085000D02*
D03*
X5495000D02*
D03*
X5295000Y4185000D02*
D03*
X5095000D02*
D03*
X4895000Y4285000D02*
D03*
X4695000D02*
D03*
X4495000Y4385000D02*
D03*
X4295000D02*
D03*
X4045000D02*
D03*
X3845000D02*
D03*
X3645000Y4485000D02*
D03*
X3445000D02*
D03*
Y4085000D02*
D03*
X3245000D02*
D03*
X3045000Y4185000D02*
D03*
X2845000D02*
D03*
X2145000D02*
D03*
X1945000D02*
D03*
X16000000Y4385000D02*
D03*
X15800000D02*
D03*
X15950000Y4285000D02*
D03*
X15750000D02*
D03*
X15900000Y4185000D02*
D03*
X15700000D02*
D03*
X14550000D02*
D03*
X14350000D02*
D03*
X14500000Y4085000D02*
D03*
X14300000D02*
D03*
X14600000Y4285000D02*
D03*
X14400000D02*
D03*
X7145000D02*
D03*
X6945000D02*
D03*
X6745000Y4385000D02*
D03*
X6545000D02*
D03*
X6345000Y4485000D02*
D03*
X6145000D02*
D03*
Y4085000D02*
D03*
X5945000D02*
D03*
X5745000Y4185000D02*
D03*
X5545000D02*
D03*
X5345000Y4285000D02*
D03*
X5145000D02*
D03*
X4945000Y4385000D02*
D03*
X4745000D02*
D03*
X4545000Y4485000D02*
D03*
X4345000D02*
D03*
X4095000D02*
D03*
X3895000D02*
D03*
Y4085000D02*
D03*
X3695000D02*
D03*
X3495000Y4185000D02*
D03*
X3295000D02*
D03*
X3095000Y4285000D02*
D03*
X2895000D02*
D03*
X2095000Y4085000D02*
D03*
X1895000D02*
D03*
X13963426Y4565000D02*
D03*
X13865000D02*
D03*
X13965000Y4000000D02*
D03*
X13866574D02*
D03*
X12710000Y4685000D02*
D03*
X12513150D02*
D03*
X12711850Y3830000D02*
D03*
X12515000D02*
D03*
D90*
X2185276Y3276102D02*
D03*
Y3374528D02*
D03*
Y3472953D02*
D03*
X1614409Y3276102D02*
D03*
X1614409Y3472953D02*
D03*
X16417000Y3282000D02*
D03*
X15846134D02*
D03*
Y3380426D02*
D03*
X16417000Y3478850D02*
D03*
X15846134D02*
D03*
D91*
X1890000Y3154055D02*
D03*
Y3595000D02*
D03*
X16141411Y3159954D02*
D03*
Y3600898D02*
D03*
D92*
X9015000Y2245000D02*
D03*
X5077992D02*
D03*
X12952008D02*
D03*
X14920512Y3005000D02*
D03*
X1645000Y3885000D02*
D03*
Y4715000D02*
D03*
X16385000Y3885000D02*
D03*
X11471654D02*
D03*
X6558330Y4715000D02*
D03*
Y3885000D02*
D03*
X1890000Y755000D02*
D03*
X10140000Y380000D02*
D03*
X15695000Y755000D02*
D03*
X11471660Y4715000D02*
D03*
X16385000Y4712500D02*
D03*
D93*
X8703976Y4125000D02*
D03*
Y4225000D02*
D03*
Y4325000D02*
D03*
Y4425000D02*
D03*
D94*
X12010000Y3980000D02*
D03*
X11910000D02*
D03*
X11810000D02*
D03*
X11710000D02*
D03*
X12410000D02*
D03*
X12310000D02*
D03*
X12210000D02*
D03*
X12110000D02*
D03*
X11710000Y4580000D02*
D03*
X11910000D02*
D03*
X11810000D02*
D03*
X12410000D02*
D03*
X12110000D02*
D03*
X12010000D02*
D03*
X12310000D02*
D03*
X12210000D02*
D03*
X12910000Y3980000D02*
D03*
X13110000D02*
D03*
X13010000D02*
D03*
X12610000D02*
D03*
X12510000D02*
D03*
X12810000D02*
D03*
X12710000D02*
D03*
X13410000D02*
D03*
X13610000D02*
D03*
X13510000D02*
D03*
X13310000D02*
D03*
X13210000D02*
D03*
X12910000Y4580000D02*
D03*
X12610000D02*
D03*
X12510000D02*
D03*
X12810000D02*
D03*
X12710000D02*
D03*
X13410000D02*
D03*
X13610000D02*
D03*
X13510000D02*
D03*
X13110000D02*
D03*
X13010000D02*
D03*
X13310000D02*
D03*
X13210000D02*
D03*
X9365000Y4755000D02*
D03*
Y4655000D02*
D03*
D95*
X13875000Y4185000D02*
D03*
Y4377126D02*
D03*
X9310000Y4355000D02*
D03*
Y4155000D02*
D03*
X9410000Y4355000D02*
D03*
Y4155000D02*
D03*
D96*
X9031732Y4491536D02*
D03*
X8998268D02*
D03*
X9098662Y4544686D02*
D03*
X9132126D02*
D03*
X9065196D02*
D03*
X8964804D02*
D03*
X9031732D02*
D03*
X8998268D02*
D03*
X9132126Y4491536D02*
D03*
X8964804D02*
D03*
X9098662D02*
D03*
X9065196D02*
D03*
X8931338Y4544686D02*
D03*
X8897874Y4491536D02*
D03*
Y4544686D02*
D03*
X8931338Y4491536D02*
D03*
D97*
X9185276Y4530118D02*
D03*
X8844724D02*
D03*
D98*
X9185276Y4663190D02*
D03*
X8844724D02*
D03*
D99*
X9865000Y4120000D02*
D03*
X9565000D02*
D03*
X9870000Y4375000D02*
D03*
X9565000D02*
D03*
X9867500Y4290000D02*
D03*
X9565000D02*
D03*
X9865000Y4205000D02*
D03*
X9565000D02*
D03*
X9867000Y4545000D02*
D03*
X9565000D02*
D03*
X9867000Y4460000D02*
D03*
X9565000Y4460000D02*
D03*
X11087000Y4214000D02*
D03*
X10787000D02*
D03*
D100*
X8695000Y4775394D02*
D03*
Y4574606D02*
D03*
D101*
X11065000Y4495000D02*
D03*
Y4317834D02*
D03*
X10809094Y4495000D02*
D03*
Y4317834D02*
D03*
X11445906Y4495001D02*
D03*
Y4317834D02*
D03*
X11190000Y4495001D02*
D03*
Y4317834D02*
D03*
D102*
X10440000Y4500000D02*
D03*
X10340000Y4500000D02*
D03*
X10440000Y4400000D02*
D03*
X10340000Y4400000D02*
D03*
X10240000Y4500000D02*
D03*
X10240000Y4400000D02*
D03*
D103*
X10670000Y4315000D02*
D03*
X10610944D02*
D03*
D104*
X15360000Y4235000D02*
D03*
X15025000Y4085000D02*
D03*
X15410000Y4285000D02*
D03*
X2270000Y3790000D02*
D03*
X7620000Y4805000D02*
D03*
X7770000D02*
D03*
X2015000Y3720000D02*
D03*
X2040000Y3745000D02*
D03*
X2140000Y3730000D02*
D03*
X9100000Y4395000D02*
D03*
X9030000D02*
D03*
X13721778Y4332817D02*
D03*
X13170000Y4160000D02*
D03*
X11900000Y4330000D02*
D03*
X12594599Y4291569D02*
D03*
X12620000Y4425000D02*
D03*
X12305000Y4405000D02*
D03*
X13575000Y4390000D02*
D03*
X13535000D02*
D03*
X12660000Y4405000D02*
D03*
X13330000Y4290000D02*
D03*
X13535423Y4320423D02*
D03*
X12340000Y4295000D02*
D03*
X13075000Y4180000D02*
D03*
X13125000D02*
D03*
X12660000Y4160000D02*
D03*
Y4040000D02*
D03*
X12240000Y4350000D02*
D03*
X12140000D02*
D03*
X12040000D02*
D03*
X11939936Y4350064D02*
D03*
X11660000Y4260000D02*
D03*
X12830000Y4055000D02*
D03*
X12804738Y4084625D02*
D03*
X9980000Y4106811D02*
D03*
X9450000Y4110000D02*
D03*
X9945000Y4095000D02*
D03*
X9480000D02*
D03*
X14855000Y4130000D02*
D03*
X8790000Y4535000D02*
D03*
X6490000Y4070000D02*
D03*
X2387000Y4000189D02*
D03*
%TF.MD5,0d83b72a47f264bfd7cd80bc6a772b66*%
M02*
