%TF.GenerationSoftware,Altium Limited,Altium Designer,22.1.2 (22)*%
G04 Layer_Color=8388736*
%FSLAX26Y26*%
%MOIN*%
%TF.SameCoordinates,6AB8E791-3C66-40CF-9B94-9E67D8B32DB7*%
%TF.FilePolarity,Positive*%
%TF.FileFunction,Other,Dwgs.User*%
%TF.Part,Single*%
G01*
G75*
%TA.AperFunction,NonConductor*%
%ADD78C,0.005906*%
D78*
X7926998Y4308461D02*
X7923249Y4306586D01*
X7919500Y4302837D01*
X7917626Y4299089D01*
X7915751Y4293466D01*
Y4284094D01*
X7917626Y4278471D01*
X7919500Y4274722D01*
X7923249Y4270973D01*
X7926998Y4269099D01*
X7934495D01*
X7938244Y4270973D01*
X7941992Y4274722D01*
X7943867Y4278471D01*
X7945741Y4284094D01*
Y4293466D01*
X7943867Y4299089D01*
X7941992Y4302837D01*
X7938244Y4306586D01*
X7934495Y4308461D01*
X7926998D01*
X7954926D02*
Y4269099D01*
X7977418D01*
X8006096Y4308461D02*
X7981729D01*
Y4269099D01*
X8006096D01*
X7981729Y4289717D02*
X7996724D01*
X8012656Y4308461D02*
Y4269099D01*
Y4308461D02*
X8025776D01*
X8031400Y4306586D01*
X8035148Y4302837D01*
X8037023Y4299089D01*
X8038897Y4293466D01*
Y4284094D01*
X8037023Y4278471D01*
X8035148Y4274722D01*
X8031400Y4270973D01*
X8025776Y4269099D01*
X8012656D01*
X8047707Y4285968D02*
X8081445D01*
X8093066Y4300963D02*
X8096815Y4302837D01*
X8102438Y4308461D01*
Y4269099D01*
%TF.MD5,ae6a8866421694f982757256ee98b829*%
M02*
